<svg id="Layer_1" data-name="Layer 1" xmlns="http://www.w3.org/2000/svg" width="240" height="60" viewBox="0 0 240 60"><title>logo-team-knowhow-left-aligned</title><g id="Left-aligned"><path d="M105.23,54.09A3.24,3.24,0,0,0,101.76,57h6.94A3.24,3.24,0,0,0,105.23,54.09Z" fill="#fff"/><path d="M96.16,54.09A3.24,3.24,0,0,0,92.69,57h6.94A3.24,3.24,0,0,0,96.16,54.09Z" fill="#fff"/><path d="M87.34,54.09A3.24,3.24,0,0,0,83.87,57h6.94A3.24,3.24,0,0,0,87.34,54.09Z" fill="#fff"/><path d="M74.7,54.09A3.24,3.24,0,0,0,71.23,57h6.94A3.24,3.24,0,0,0,74.7,54.09Z" fill="#fff"/><path d="M67,54.09A3.24,3.24,0,0,0,63.57,57h6.94A3.24,3.24,0,0,0,67,54.09Z" fill="#fff"/><path d="M57.81,54.09A3.24,3.24,0,0,0,54.34,57h6.94A3.24,3.24,0,0,0,57.81,54.09Z" fill="#fff"/><path d="M20.29,54.09A3.24,3.24,0,0,0,16.82,57h6.94A3.24,3.24,0,0,0,20.29,54.09Z" fill="#fff"/><path d="M.86,49.93l4.33,5.42a3.24,3.24,0,0,0,.13-4.54A3.24,3.24,0,0,0,.86,49.93Z" fill="#fff"/><path d="M104.85,15.77l-8.45,0c-1.93,1.41-3.94,3.74-4.17,6.63a64.58,64.58,0,0,0,0,7A3,3,0,0,0,94,32.11h0l.43,5.14.18,2.22H89.2l.11-2.36a1.15,1.15,0,0,0,.49-1.45l1.34-1.6a2.18,2.18,0,0,0-1.53-.68h-.13l.06-1.21L90.19,26c-1.42-2.86-4.7-8.65-5.41-10l-5,.18c-1.08,2.22-4.57,9.06-5.39,12.52a3,3,0,0,0-.07.45A3,3,0,0,0,77,32.45h.13L76.32,37l-.47,2.55L70.36,36l-.95-.62a.09.09,0,0,0-.13,0l-1.63,2.47.16-3.8,0-.92a3,3,0,0,0,3-3L70.74,25A3,3,0,0,0,70,23l-5.36-5.7-5.57.2L54,23a3,3,0,0,0-.77,2l-.09,5.19a3,3,0,0,0,2.46,2.93h0L57.76,52l4.78.31L67,52l.42-9.66.11-2.55,6.23,4.09a.09.09,0,0,0,.13,0l1.59-2.43-.83,4.52-1.11,6,4.44.76s2.79-14.15,5.11-20.42h0l.33,4.93.07,2.22h-.15a.11.11,0,0,0-.11.11v7.74a.11.11,0,0,0,.11.11h.42l.07,2.23L84,52.92,88.61,52l.21-4.53h6.5l.18,2.23L95.7,52l5,.77,4.77-.76,1.71-19.6h0a3,3,0,0,0,1.92-2.73,60.21,60.21,0,0,0,.12-6.79C109,20,106.75,17.22,104.85,15.77Z" fill="#fff"/><path d="M118.74,8.19l-2.23-.84V8.83A2.55,2.55,0,0,0,119,11a1.92,1.92,0,0,0,1.85-2.17C120.84,7.54,119,7.44,118.74,8.19Z" fill="#fff"/><path d="M69.27,14.81a2.28,2.28,0,0,0,1.13.11c1-.21,1.33-1.21,1.3-2.34,0-1.93-.54-2.44-1.24-2.44-1.43,0-1.39,1.82-1.3,2.44Z" fill="#fff"/><path d="M38.93,20.85a1.78,1.78,0,0,0,1.88-1.71c0-.84-.35-1.35-1.29-1.35l-1.93-.62C37.13,18.74,36.91,20.85,38.93,20.85Z" fill="#fff"/><path d="M20.09,32.58c1.19,0,2.12-.22,2.71-2.41l.4-4.87a9.65,9.65,0,0,0-4.7-8.24l-7-.35A9.58,9.58,0,0,0,6.15,25.3v4.83c0,1.61.77,2.45,1.81,2.45,0,0-.06,2.41-.16,6.7-.1,3.84-1.62,5-3.18,6.24L2.95,46.74,7.73,50l2.37-1.89a10.79,10.79,0,0,0,3.61-5.7l.23-.67,2.44,11.63L21.32,52C20.72,45.77,20.24,39.75,20.09,32.58Z" fill="#fff"/><rect x="33.86" y="30.25" width="15.96" height="21.13" transform="translate(-7.02 8.73) rotate(-11)" fill="#fff"/><circle cx="33.96" cy="55.77" r="1.75" transform="translate(-10.02 7.5) rotate(-11)" fill="#fff"/><circle cx="98.96" cy="7.97" r="5.8" fill="#fff"/><path d="M16.77,15.2A5.8,5.8,0,0,0,22.34,11h.1A1.16,1.16,0,0,0,23.7,9.78,2.15,2.15,0,0,0,22.39,8h0a5.79,5.79,0,1,0-5.62,7.21Z" fill="#fff"/><path d="M61.41,15.61A5.8,5.8,0,0,0,63.14,4.28a2,2,0,1,0-3.69.09,5.79,5.79,0,0,0,2,11.25Z" fill="#fff"/><path d="M76.91,11.5v-.08a5.8,5.8,0,1,0-.78-3.31,7.25,7.25,0,0,0-.87,2.16C75,11.59,76.21,11.5,76.91,11.5Z" fill="#fff"/><path d="M65.09,15.08a.74.74,0,0,1-.47-1.32,5,5,0,0,0,1.85-3.42.74.74,0,1,1,1.48.15,6.49,6.49,0,0,1-2.39,4.43A.74.74,0,0,1,65.09,15.08Z" fill="#f0f"/><path d="M83.91,21.4l-.6,0a.74.74,0,0,1,.13-1.48,5.44,5.44,0,0,0,1.13,0,.74.74,0,1,1,.18,1.47A6.82,6.82,0,0,1,83.91,21.4Z" fill="#f0f"/><path d="M105.34,21.43l-.6,0a.74.74,0,0,1,.13-1.48,5.43,5.43,0,0,0,1.13,0,.74.74,0,1,1,.18,1.47A6.87,6.87,0,0,1,105.34,21.43Z" fill="#f0f"/><path d="M34.49,13.11a.74.74,0,0,1-.59-.29l-2-2.6A.74.74,0,0,1,33,9.31l2,2.6a.74.74,0,0,1-.58,1.2Z" fill="#f0f"/><path d="M37.91,11.2a.74.74,0,0,1-.74-.74V7.22a.74.74,0,0,1,1.48,0v3.24A.74.74,0,0,1,37.91,11.2Z" fill="#f0f"/><path d="M41.44,13.11a.74.74,0,0,1-.56-1.23l2.29-2.6a.74.74,0,0,1,1.11,1L42,12.86A.74.74,0,0,1,41.44,13.11Z" fill="#f0f"/><path d="M64.84,22.77a7.39,7.39,0,0,1-.77,0,.74.74,0,1,1,.15-1.48,5.86,5.86,0,0,0,1.22,0,.74.74,0,0,1,.16,1.48A7.3,7.3,0,0,1,64.84,22.77Z" fill="#f0f"/><path d="M19.52,22.17a7.38,7.38,0,0,1-.77,0,.74.74,0,0,1,.15-1.48,5.85,5.85,0,0,0,1.22,0,.74.74,0,0,1,.16,1.48A7.31,7.31,0,0,1,19.52,22.17Z" fill="#f0f"/><path d="M95.33,38.74H83.44a.86.86,0,0,0-.86.86v7.74a.86.86,0,0,0,.86.86H95.33a.86.86,0,0,0,.86-.86V39.6A.86.86,0,0,0,95.33,38.74Zm-.63,1.48v1.94H84.07V40.22ZM84.07,46.71V43.65h2v.25a.74.74,0,1,0,1.48,0v-.25h3.53v.25a.74.74,0,1,0,1.48,0v-.25H94.7v3.06Z" fill="#f0f"/><path d="M36,53.45a.74.74,0,0,1-.73-.6l-4-20.75a.74.74,0,0,1,.59-.87l15.66-3a.74.74,0,0,1,.87.59l4,20.75a.74.74,0,0,1-.59.87l-15.66,3Zm-3.16-20.9,3.75,19.29,14.21-2.76L47.07,29.79Z" fill="#f0f"/><path d="M42.25,49.72a6.6,6.6,0,1,1,1.27-.12A6.65,6.65,0,0,1,42.25,49.72Zm0-11.68a5.1,5.1,0,1,0,5,4.12h0A5.1,5.1,0,0,0,42.27,38Z" fill="#f0f"/><path d="M36.15,36.73a2,2,0,1,1,1.92-2.33h0a2,2,0,0,1-1.55,2.29A2,2,0,0,1,36.15,36.73Zm0-2.43h-.09a.47.47,0,1,0,.55.37h0a.47.47,0,0,0-.46-.38Z" fill="#f0f"/><path d="M42.27,47.47A4.34,4.34,0,0,1,38,44a.74.74,0,1,1,1.46-.28,2.85,2.85,0,1,0,2.25-3.34.74.74,0,0,1-.28-1.46,4.33,4.33,0,1,1,.83,8.59Z" fill="#f0f"/><path d="M41.72,35.62A.74.74,0,0,1,41,35l-.46-2.38a.74.74,0,0,1,.59-.87l4.58-.89a.74.74,0,0,1,.87.59L47,33.85a.74.74,0,0,1-.59.87l-4.58.89Zm.41-2.54.18.93,3.12-.61-.18-.93Z" fill="#f0f"/><path d="M46.7,53.3a.74.74,0,0,0-.87-.59l-9.68,1.88a2.5,2.5,0,0,0-1.92-1.3L30,31.45a.74.74,0,0,0-1.33-.3l-1.81,2.49a.74.74,0,0,0,1.2.87l.81-1.11,3.92,20.18A2.49,2.49,0,0,0,34,58.27,2.5,2.5,0,0,0,36.43,56l9.68-1.88A.74.74,0,0,0,46.7,53.3ZM34.15,56.77a1,1,0,1,1-.39-2l.19,0a1,1,0,0,1,.19,2Z" fill="#f0f"/><path d="M73.85,44.63a.83.83,0,0,1-.46-.14l-7-4.58a.84.84,0,0,1-.24-1.16L68.66,35a.83.83,0,0,1,1.16-.24l.94.61A.74.74,0,0,1,70,36.58l-.41-.26L67.77,39l5.9,3.87,1.78-2.71A.74.74,0,0,1,76.3,39l.49.32A.84.84,0,0,1,77,40.46l-2.49,3.79A.84.84,0,0,1,73.85,44.63Zm-6.63-6h0ZM69,36h0Zm.9-.19h0Z" fill="#f0f"/><circle cx="79.48" cy="8.87" r="0.71" transform="translate(-0.48 7.47) rotate(-5.36)"/><circle cx="96.97" cy="8.83" r="0.71" transform="translate(-0.4 9.1) rotate(-5.36)"/><circle cx="101.43" cy="7.57" r="0.71" transform="translate(-0.26 9.52) rotate(-5.36)"/><circle cx="63.65" cy="15.31" r="0.71" transform="translate(-1.15 6.02) rotate(-5.36)" fill="#f0f"/><circle cx="73.52" cy="40.67" r="0.74" transform="translate(8.47 93.86) rotate(-68.22)" fill="#f0f"/><path d="M98.74,12.09A3.73,3.73,0,0,1,97,11.66a.74.74,0,1,1,.69-1.31,2.24,2.24,0,0,0,1.81.13.74.74,0,0,1,.5,1.4A3.72,3.72,0,0,1,98.74,12.09Z"/><path d="M81.87,15a6.59,6.59,0,0,1-5.37-2.8,2.12,2.12,0,0,1-1.68-.62,1.73,1.73,0,0,1-.29-1.49,10.71,10.71,0,0,1,1.8-3.72.74.74,0,0,1,1.22.84A9.46,9.46,0,0,0,76,10.41a.59.59,0,0,0,0,.28,2.5,2.5,0,0,0,.78.07h.15a.74.74,0,0,1,.63.36,5.05,5.05,0,1,0,1.78-7,.74.74,0,1,1-.75-1.28A6.54,6.54,0,1,1,82.48,15Z"/><path d="M80.6,12.83a.74.74,0,0,1-.13-1.47,2.22,2.22,0,0,0,1.14-.57.74.74,0,0,1,1,1.08,3.7,3.7,0,0,1-1.89.94Z"/><path d="M60,10.63a.74.74,0,0,1-.28-.06,1,1,0,0,0-.75,0,.74.74,0,1,1-.47-1.41,2.52,2.52,0,0,1,1.78.07A.74.74,0,0,1,60,10.63Z"/><path d="M63,10.71a.74.74,0,0,1-.28-1.43,2.53,2.53,0,0,1,1.78-.07A.74.74,0,1,1,64,10.62a1,1,0,0,0-.75,0A.74.74,0,0,1,63,10.71Z"/><path d="M84,6.74a.74.74,0,0,1-.51-.21,2.91,2.91,0,0,0-3.28-.75,3.41,3.41,0,0,1-4.23-1.1A.75.75,0,0,1,76,3.64a.74.74,0,0,1,1,.07,2,2,0,0,0,2.46.75,4.39,4.39,0,0,1,5,1A.74.74,0,0,1,84,6.74Z"/><path d="M108.7,57.76h-6.94A.74.74,0,0,1,101,57a4.25,4.25,0,0,1,8.42,0A.74.74,0,0,1,108.7,57.76Zm-6-1.48h5.14a3,3,0,0,0-5.14,0Z"/><path d="M99.63,57.76H92.69a.74.74,0,0,1-.74-.74,4.25,4.25,0,0,1,8.42,0A.74.74,0,0,1,99.63,57.76Zm-6-1.48h5.14a3,3,0,0,0-5.14,0Z"/><path d="M90.81,57.76H83.87a.74.74,0,0,1-.74-.74,4.25,4.25,0,0,1,8.42,0A.74.74,0,0,1,90.81,57.76Zm-6-1.48h5.14a3,3,0,0,0-5.14,0Z"/><path d="M74.7,53.34a4.28,4.28,0,0,0-3.83,2.15A4.28,4.28,0,0,0,67,53.34,4,4,0,0,0,62.83,57a.74.74,0,0,0,.74.74h6.94a.73.73,0,0,0,.36-.1.73.73,0,0,0,.36.1h6.94a.74.74,0,0,0,.74-.74A4,4,0,0,0,74.7,53.34ZM64.47,56.28a3,3,0,0,1,5.14,0Zm7.66,0a3,3,0,0,1,5.14,0Z"/><path d="M61.28,57.76H54.34A.74.74,0,0,1,53.6,57,4.25,4.25,0,0,1,62,57,.74.74,0,0,1,61.28,57.76Zm-6-1.48h5.14a3,3,0,0,0-5.14,0Z"/><path d="M106.81,9.84a1.52,1.52,0,0,1-1.32-1.6s0,0,0,0A6.54,6.54,0,0,0,94.33,3.35a.74.74,0,1,0,1.05,1,5.06,5.06,0,0,1,5.1-1.25c0,.45-.45.93-1.17,1.32a7.83,7.83,0,0,1-3.5.81A8.41,8.41,0,0,1,93,4.88a.74.74,0,1,0-.47,1.41,9.9,9.9,0,0,0,3.13.48h.18a9.22,9.22,0,0,0,4.19-1,3.64,3.64,0,0,0,1.84-1.95,5.06,5.06,0,1,1-7.14,6.89h0a5.11,5.11,0,0,1-.78-2.32.74.74,0,0,0-1.48.12,6.58,6.58,0,0,0,1,3,1.51,1.51,0,0,1-.33,2,.74.74,0,1,0,.91,1.17,3,3,0,0,0,1-1.52,6.62,6.62,0,0,0,.67.44,6.5,6.5,0,0,0,3.17.83,6.54,6.54,0,0,0,6-4,3,3,0,0,0,1.66.78h.1a.74.74,0,0,0,.09-1.48Z"/><path d="M100.69,30.35h0a.74.74,0,0,1-.73-.75l.16-12a.74.74,0,0,1,1.48,0l-.16,12A.74.74,0,0,1,100.69,30.35Z"/><path d="M73.59,52.73h-.13a.74.74,0,0,1-.6-.86l1.11-6a.74.74,0,0,1,1.46.27l-1.11,6A.74.74,0,0,1,73.59,52.73Z"/><path d="M67,52.73h0A.74.74,0,0,1,66.3,52l.42-9.66a.74.74,0,1,1,1.48.06L67.78,52A.74.74,0,0,1,67,52.73Z"/><path d="M75,19.92,71.5,15.17a3.22,3.22,0,0,0,.94-2.6c0-.78-.08-3.17-2-3.17A1.88,1.88,0,0,0,69,10a3.6,3.6,0,0,0-.58,2.65.74.74,0,0,0,1.47-.19A2.21,2.21,0,0,1,70.11,11a.41.41,0,0,1,.35-.13c.4,0,.49,1.08.5,1.72,0,.43,0,1.44-.72,1.59a3.47,3.47,0,0,1-1.85-.6.74.74,0,0,0-.79,1.26A5.42,5.42,0,0,0,70,15.7l3.37,4.56-8.51-3.68h0a.74.74,0,0,0-.84,1.19l5.35,5.69A2.25,2.25,0,0,1,70,25l.09,5.18a2.24,2.24,0,0,1-2.24,2.24H56.08a2.24,2.24,0,0,1-2.24-2.22l.09-5.2a2.23,2.23,0,0,1,.58-1.5L59.58,18a.74.74,0,0,0-1.06-1A7.5,7.5,0,0,1,57.1,18c-5,2.53-7.45,4.67-7.55,6.74-.09,1.86,1.64,3,2.79,3.69l0,0,0,1.68a3.72,3.72,0,0,0,2.5,3.51L57,52.07a.74.74,0,0,0,.74.66h.09a.74.74,0,0,0,.65-.82l-2.12-18h4.87l.56,18.45a.74.74,0,0,0,.74.72h0a.74.74,0,0,0,.72-.76l-.55-18.41h4.35V34a.74.74,0,0,0,.71.77h0a.74.74,0,0,0,.74-.71V33.8a3.73,3.73,0,0,0,3-3.66L71.48,25a3.72,3.72,0,0,0-1-2.51L67.6,19.36l5.87,2.54a1.28,1.28,0,0,0,.5.1,1.3,1.3,0,0,0,1.3-1.3A1.28,1.28,0,0,0,75,19.92Zm-21.6,2.54a3.71,3.71,0,0,0-1,2.49l0,1.78c-.73-.51-1.42-1.14-1.39-1.89s.62-1.9,3.72-3.83Z"/><path d="M67.57,7.55A6.56,6.56,0,0,0,64,3.81s0-.08,0-.12a2.69,2.69,0,0,0-5.39,0c0,.09,0,.17,0,.25a6.56,6.56,0,0,0-1.88,1.36.74.74,0,0,0-.12.12l0,0a6.53,6.53,0,0,0,4.85,10.91.74.74,0,1,0,0-1.48,5,5,0,0,1-4.09-8A7.72,7.72,0,0,0,61.42,8a7.64,7.64,0,0,0,2.87-.56.74.74,0,0,0-.56-1.37,6.23,6.23,0,0,1-5.31-.32,5,5,0,0,1,3-1,5.08,5.08,0,0,1,4.74,3.29.74.74,0,0,0,1.39-.52ZM60.1,3.43a1.21,1.21,0,0,1,2.34-.06,6.47,6.47,0,0,0-1-.08A6.54,6.54,0,0,0,60.1,3.43Z"/><circle cx="19.23" cy="9.19" r="0.71" transform="translate(-0.77 1.84) rotate(-5.36)"/><path d="M23,7.47A6.5,6.5,0,0,0,22.36,6a.74.74,0,1,0-1.27.77,5,5,0,0,1,.58,1.39.74.74,0,0,0,.42.5A1.42,1.42,0,0,1,23,9.78c0,.14,0,.47-.52.47a.74.74,0,0,0-.71.53,5.27,5.27,0,0,1-5,3.67,5.05,5.05,0,1,1,2.37-9.52L15.35,7.8A.74.74,0,0,0,16.24,9l7-5.29a.74.74,0,1,0-.89-1.18L20.42,4a6.54,6.54,0,1,0-3.65,12A6.8,6.8,0,0,0,23,11.68a1.86,1.86,0,0,0,1.45-1.89A2.81,2.81,0,0,0,23,7.47Z"/><path d="M20.29,53.34A4,4,0,0,0,16.08,57a.74.74,0,0,0,.74.74h6.94A.74.74,0,0,0,24.5,57,4,4,0,0,0,20.29,53.34Zm-2.57,2.94a2.77,2.77,0,0,1,2.57-1.45,2.77,2.77,0,0,1,2.57,1.45Z"/><path d="M.4,49.35a.74.74,0,0,0-.12,1l4.33,5.42a.74.74,0,0,0,1,.12,3.44,3.44,0,0,0,1.27-2.65,4.53,4.53,0,0,0-1-2.94A4,4,0,0,0,.4,49.35Zm4.81,4.84-3.2-4a2.77,2.77,0,0,1,2.74,1.1,3,3,0,0,1,.7,2A2.19,2.19,0,0,1,5.21,54.19Z"/><path d="M39.52,17a.74.74,0,1,0,0,1.48c.4,0,.55,0,.55.6a1,1,0,0,1-1.14,1c-.55,0-.69-.21-.74-.28-.43-.65,0-2.46.64-3.91a.74.74,0,1,0-1.36-.6,10.84,10.84,0,0,0-.92,3.31l-.35.07c-.86.17-2.32.48-4.34.92-4.85,1.05-8.65-.93-11.7-2.52l-1.34-.69a.74.74,0,0,0-.7,1.31h0a8.85,8.85,0,0,1,4.33,7.6.74.74,0,1,0,1.48,0,10.42,10.42,0,0,0-1.59-5.49,16.48,16.48,0,0,0,6.76,1.58,14.46,14.46,0,0,0,3.07-.33c2.67-.58,3.93-.84,4.53-1a2.28,2.28,0,0,0,.25.52,2.2,2.2,0,0,0,2,1,2.51,2.51,0,0,0,2.62-2.46A1.87,1.87,0,0,0,39.52,17Z"/><path d="M84,53.66a.74.74,0,0,1-.74-.72l-.09-3.24a.74.74,0,0,1,.72-.76.75.75,0,0,1,.76.72l.09,3.24a.74.74,0,0,1-.72.76Z"/><path d="M88.61,52.73h0a.74.74,0,0,1-.7-.78L88,49.64a.74.74,0,1,1,1.48.08L89.35,52A.74.74,0,0,1,88.61,52.73Z"/><path d="M95.7,52.72A.74.74,0,0,1,95,52l-.19-2.3a.74.74,0,1,1,1.48-.12l.19,2.3a.74.74,0,0,1-.68.8Z"/><path d="M31.95,29.69a3,3,0,0,0-3.47-2.1,4.46,4.46,0,0,0-1,.29c-.79-.15-3.49-.63-5.71-.91a8,8,0,0,1-4-2c0-.14,0-.28,0-.42a26.72,26.72,0,0,0-.65-5.78.74.74,0,1,0-1.45.33,24.78,24.78,0,0,1,.58,4.27,8,8,0,0,1-.63-.94c-1.2-2.14-3.5-6-3.53-6.06a.74.74,0,0,0-.94-.3A10.26,10.26,0,0,0,5.41,25.3v4.83c0,1.86.86,2.77,1.8,3.07,0,1-.07,3.05-.15,6.06C7,42.72,5.69,43.73,4.21,44.9l-1.7,1.24a.74.74,0,1,0,.88,1.2L5.08,46.1l0,0c1.55-1.23,3.31-2.61,3.41-6.76.07-2.92.12-5,.15-6H19.37c.18,7.24.69,13.29,1.21,18.75a.74.74,0,0,0,.74.67h.07a.74.74,0,0,0,.67-.81c-.53-5.44-1-11.46-1.21-18.66,1.2-.17,2.12-.86,2.66-2.91A.74.74,0,1,0,22.08,30c-.5,1.86-1.12,1.86-2,1.86H8c-1,0-1.07-1.2-1.07-1.71V25.3a8.94,8.94,0,0,1,4.36-7.61c.69,1.17,2.25,3.8,3.15,5.42a11,11,0,0,0,1.94,2.45,24.73,24.73,0,0,1-.57,4.64.74.74,0,0,0,.56.89l.16,0a.74.74,0,0,0,.72-.58,25.79,25.79,0,0,0,.55-3.77,8.72,8.72,0,0,0,3.87,1.68c1.52.19,3.27.48,4.46.69h0A2.87,2.87,0,0,0,26,31.61.74.74,0,0,0,27.4,31a1.42,1.42,0,0,1,0-1.21A1.89,1.89,0,0,1,28.75,29a1.53,1.53,0,0,1,1.79,1.13.74.74,0,1,0,1.4-.48Z"/><path d="M120,7a1.69,1.69,0,0,0-2,.92.74.74,0,0,0,1.37.56.66.66,0,0,1,.5,0,.3.3,0,0,1,.18.31c0,.69-.29,1.43-1.11,1.43a1.83,1.83,0,0,1-1.73-1.43V7.35a3.24,3.24,0,0,0-.71-2,.74.74,0,1,0-1.2.87,1.76,1.76,0,0,1,.42,1.12V8.83a3.26,3.26,0,0,0,1.08,2.1l-.55,4.49a2.9,2.9,0,0,1-3.66,2.41l-7.54-2.75a.74.74,0,0,0-.7,1.29h0c1.92,1.45,3.91,4,4.06,6.56a59.87,59.87,0,0,1-.12,6.68s0,0,0,0a2.23,2.23,0,0,1-1.39,2h0a2.24,2.24,0,0,1-.86.16l-5-.11h0l-5.82-.13A2.24,2.24,0,0,1,93,29.37v0a64.15,64.15,0,0,1,0-6.9,6.84,6.84,0,0,1,.93-2.88,12.54,12.54,0,0,1,3.21-3.39.74.74,0,1,0-.81-1.24l-.32.22h0l-.31.23h0a12.39,12.39,0,0,0-2.82,3.07,20,20,0,0,0-2,3.65,34.53,34.53,0,0,0-5.58-6.6.74.74,0,0,0-1.14.92l.52.95c.84,1.52,2.11,3.82,3.24,6.11a.74.74,0,0,0,1.33-.66c-.27-.54-.54-1.07-.81-1.6.69.94,1.3,1.84,1.79,2.63a29,29,0,0,0-1.37,8.89A4.49,4.49,0,0,0,87,33.84a2.94,2.94,0,0,0-1,2,1.94,1.94,0,0,0,1,1.8,3.6,3.6,0,0,0,1.64.37h0a2,2,0,0,0,1.59-.73,2,2,0,0,0,.27-1.81.74.74,0,1,0-1.43.4.61.61,0,0,1,0,.51.52.52,0,0,1-.43.15,2.11,2.11,0,0,1-.94-.19.46.46,0,0,1-.27-.48,1.61,1.61,0,0,1,.57-1,2.53,2.53,0,0,1,1.59-.77c.76,0,1.17.49,1.87,1.6a.74.74,0,1,0,1.25-.79,4.39,4.39,0,0,0-2.4-2.19A27.91,27.91,0,0,1,91.39,25c0,2.18.09,4.18.1,4.43a3.73,3.73,0,0,0,1.85,3.19l.39,4.73a.74.74,0,0,0,.74.68h.06a.74.74,0,0,0,.68-.8l-.34-4.12.32,0,5.08.11L100,52.74a.74.74,0,0,0,.73.75h0a.74.74,0,0,0,.74-.73l.32-19.53,4.29.09h.31l-1.62,18.61a.74.74,0,0,0,.67.8h.07a.74.74,0,0,0,.74-.68l1.67-19.17a3.72,3.72,0,0,0,2-3.18,59.94,59.94,0,0,0,.12-6.87,9.64,9.64,0,0,0-2.19-5.21l4.41,1.61,0,0a4.38,4.38,0,0,0,5.56-3.64l.48-3.94a3.33,3.33,0,0,0,.73.08,2.65,2.65,0,0,0,2.59-2.91A1.83,1.83,0,0,0,120,7Z"/><path d="M86.65,31.52l-9.3.19h-.26a2.24,2.24,0,0,1-2-2.42,2.29,2.29,0,0,1,.06-.35c0-.16.08-.33.13-.5.25-.81.54-1.63.87-2.49C77.26,23,79,19.52,80,17.55l.48-1a.74.74,0,0,0-1.33-.66h0a106.6,106.6,0,0,0-4.47,9.69c-.29.76-.55,1.48-.74,2.13a51.5,51.5,0,0,0-1.74,7.88A3.16,3.16,0,0,0,70.6,38a.74.74,0,0,0,.68.8h.06a.74.74,0,0,0,.74-.69,2,2,0,0,1,.6-1c.62,0,1,.23,1,.69a.74.74,0,1,0,1.47-.23,2.15,2.15,0,0,0-1.53-1.79c.23-1.44.46-2.71.71-3.9l.07.09a3.69,3.69,0,0,0,1.85,1.19l-.7,3.83a.74.74,0,0,0,.6.86h.13a.74.74,0,0,0,.73-.61l.72-4,4.42-.09c-2.25,6.49-4.78,19-4.89,19.5a.74.74,0,0,0,.58.87H78a.74.74,0,0,0,.73-.59c0-.12,2-9.76,4-16.5l.07.91a.74.74,0,0,0,1.48-.11L84,33.06,86.69,33a.74.74,0,0,0,0-1.48Z"/><path d="M17.12,53.2l-2.4-11.44c.47-1.43,1-3.15,1.17-3.74v0a.73.73,0,0,0-.53-.88.75.75,0,0,0-.91.52c-.21.69-.92,3-1.44,4.53l-.07.19A9.79,9.79,0,0,1,9.64,47.5L7.27,49.39a.74.74,0,1,0,.92,1.16l2.36-1.88a10,10,0,0,0,3.2-4.26l1.91,9.08a.74.74,0,0,0,.73.59l.15,0A.74.74,0,0,0,17.12,53.2Z"/><path d="M125,50.52a.41.41,0,0,1,.13-.35.58.58,0,0,1,.36-.1.56.56,0,0,1,.35.1.42.42,0,0,1,.12.35v2.75H130V50.52a.42.42,0,0,1,.12-.35.56.56,0,0,1,.35-.1.58.58,0,0,1,.36.1.41.41,0,0,1,.13.35v6.8a.41.41,0,0,1-.13.35.58.58,0,0,1-.36.1.56.56,0,0,1-.35-.1.42.42,0,0,1-.12-.35V54.11h-4.09v3.21a.42.42,0,0,1-.12.35.56.56,0,0,1-.35.1.58.58,0,0,1-.36-.1.41.41,0,0,1-.13-.35Z"/><path d="M134.7,52.05a2.51,2.51,0,0,1,1.91.75,2.82,2.82,0,0,1,.72,2q0,.39-.44.39h-4a2.06,2.06,0,0,0,.59,1.31,1.68,1.68,0,0,0,1.23.52,1.92,1.92,0,0,0,1.55-.71.78.78,0,0,1,.18-.18.34.34,0,0,1,.18,0,.46.46,0,0,1,.31.11.36.36,0,0,1,.13.28.57.57,0,0,1-.12.31,2.28,2.28,0,0,1-.93.79,3.06,3.06,0,0,1-1.31.27,2.64,2.64,0,0,1-1.44-.4,2.75,2.75,0,0,1-1-1.06,3.06,3.06,0,0,1-.35-1.44,3,3,0,0,1,.38-1.5,2.75,2.75,0,0,1,1-1A2.68,2.68,0,0,1,134.7,52.05Zm0,.8a1.7,1.7,0,0,0-1.16.42,2,2,0,0,0-.62,1.13h3.47a1.77,1.77,0,0,0-.53-1.15A1.65,1.65,0,0,0,134.7,52.86Z"/><path d="M138.33,50.51a.41.41,0,0,1,.12-.34.54.54,0,0,1,.34-.09.56.56,0,0,1,.34.09.4.4,0,0,1,.12.34v6.82a.4.4,0,0,1-.12.34.56.56,0,0,1-.34.09.54.54,0,0,1-.34-.09.41.41,0,0,1-.12-.34Z"/><path d="M143.4,52.05a2.75,2.75,0,0,1,1.46.38,2.56,2.56,0,0,1,1,1,3.49,3.49,0,0,1,0,3,2.5,2.5,0,0,1-1,1,2.83,2.83,0,0,1-1.42.35,2.52,2.52,0,0,1-1.18-.28,1.85,1.85,0,0,1-.79-.73v2.7a.44.44,0,0,1-.11.33.51.51,0,0,1-.36.1.49.49,0,0,1-.35-.1.44.44,0,0,1-.11-.33v-7a.42.42,0,0,1,.1-.31.47.47,0,0,1,.33-.1.49.49,0,0,1,.34.1.42.42,0,0,1,.1.31v.61a2,2,0,0,1,.82-.83A2.43,2.43,0,0,1,143.4,52.05Zm-.1.83a1.81,1.81,0,0,0-1.68,1,2.36,2.36,0,0,0-.23,1.06,2.14,2.14,0,0,0,.53,1.5,1.93,1.93,0,0,0,2.75,0,2.42,2.42,0,0,0,0-3A1.77,1.77,0,0,0,143.31,52.88Z"/><path d="M152.35,52.51a.52.52,0,0,1,.17-.27.57.57,0,0,1,.33-.08.63.63,0,0,1,.33.07.44.44,0,0,1,.17.28l1.22,4,1.26-4.11a.38.38,0,0,1,.1-.18.32.32,0,0,1,.22-.07.83.83,0,0,1,.36.09.29.29,0,0,1,.18.27.39.39,0,0,1,0,.14l0,.14-1.57,4.64a.45.45,0,0,1-.18.26.67.67,0,0,1-.36.08.71.71,0,0,1-.36-.08.43.43,0,0,1-.18-.26l-1.18-3.85-1.15,3.85a.43.43,0,0,1-.18.26.71.71,0,0,1-.36.08.67.67,0,0,1-.36-.08.45.45,0,0,1-.18-.26L149,52.84l0-.15a.43.43,0,0,1,0-.15.3.3,0,0,1,.19-.29.85.85,0,0,1,.37-.09.31.31,0,0,1,.23.08.53.53,0,0,1,.12.2l1.28,4.09Z"/><path d="M157.34,50.66a.57.57,0,0,1,.17-.44.63.63,0,0,1,.84,0,.66.66,0,0,1,0,.88.63.63,0,0,1-.84,0A.57.57,0,0,1,157.34,50.66Zm.13,1.93a.41.41,0,0,1,.12-.34.54.54,0,0,1,.34-.09.56.56,0,0,1,.34.09.4.4,0,0,1,.12.34v4.73a.4.4,0,0,1-.12.34.56.56,0,0,1-.34.09.54.54,0,0,1-.34-.09.41.41,0,0,1-.12-.34Z"/><path d="M159.52,53a.34.34,0,0,1-.29-.1.58.58,0,0,1,0-.58.34.34,0,0,1,.29-.1H160V51.12a.9.9,0,0,1,0-.3.37.37,0,0,1,.16-.17.8.8,0,0,1,.42-.12q.3,0,.3.31v1.4h1a.35.35,0,0,1,.29.1.58.58,0,0,1,0,.58.34.34,0,0,1-.29.1h-1v3.21a1,1,0,0,0,.15.65.61.61,0,0,0,.49.17.67.67,0,0,0,.22,0L162,57l.15-.07a.4.4,0,0,1,.17,0,.34.34,0,0,1,.27.13.46.46,0,0,1,.11.31q0,.26-.34.41a2.13,2.13,0,0,1-.85.15,1.5,1.5,0,0,1-1.11-.36,1.45,1.45,0,0,1-.36-1.06V53Z"/><path d="M164.21,53a1.51,1.51,0,0,1,.4-.48,1.91,1.91,0,0,1,.67-.37,2.46,2.46,0,0,1,.75-.12,2,2,0,0,1,1.39.48A1.87,1.87,0,0,1,168,54v3.39q0,.38-.45.38t-.48-.38V54.22a1.54,1.54,0,0,0-.27-1,1.17,1.17,0,0,0-1-.33,1.35,1.35,0,0,0-.73.19,1.54,1.54,0,0,0-.49.49,2.3,2.3,0,0,0-.28.68,3.17,3.17,0,0,0-.09.75v2.3a.4.4,0,0,1-.12.34.56.56,0,0,1-.34.09.54.54,0,0,1-.34-.09.41.41,0,0,1-.12-.34V50.51a.41.41,0,0,1,.12-.34.54.54,0,0,1,.34-.09.56.56,0,0,1,.34.09.4.4,0,0,1,.12.34Z"/><path d="M175.08,54.29v-.22a1.22,1.22,0,0,0-.32-.92,1.47,1.47,0,0,0-1-.3,1.63,1.63,0,0,0-.49.06,1.71,1.71,0,0,0-.35.15,1.1,1.1,0,0,0-.24.18l-.16.17a.77.77,0,0,1-.18.17.39.39,0,0,1-.2,0,.54.54,0,0,1-.32-.1.31.31,0,0,1-.15-.27.51.51,0,0,1,0-.14l0-.12a1.13,1.13,0,0,1,.13-.18,1.76,1.76,0,0,1,.36-.33,2.55,2.55,0,0,1,.63-.31,2.85,2.85,0,0,1,.94-.14,3.06,3.06,0,0,1,1,.16,1.87,1.87,0,0,1,.69.42,1.58,1.58,0,0,1,.38.6,2.14,2.14,0,0,1,.12.71v3.46q0,.36-.47.36c-.21,0-.34,0-.39-.14a.89.89,0,0,1-.07-.39v-.33a3.22,3.22,0,0,1-.26.31,1.78,1.78,0,0,1-.37.3,2.11,2.11,0,0,1-.53.22,3,3,0,0,1-1.55,0,1.64,1.64,0,0,1-.59-.33,1.32,1.32,0,0,1-.35-.5,1.65,1.65,0,0,1-.11-.61,2,2,0,0,1,.15-.78,1.42,1.42,0,0,1,.52-.61,2.92,2.92,0,0,1,1-.4,7.56,7.56,0,0,1,1.55-.17Zm-.6.74a6.52,6.52,0,0,0-1.13.1,2.24,2.24,0,0,0-.68.23.8.8,0,0,0-.34.35,1.13,1.13,0,0,0-.09.47.89.89,0,0,0,.26.63,1.13,1.13,0,0,0,.84.27,1.87,1.87,0,0,0,.93-.23,1.71,1.71,0,0,0,.64-.58,1.48,1.48,0,0,0,.18-.79V55Z"/><path d="M177.27,50.51a.41.41,0,0,1,.12-.34.54.54,0,0,1,.34-.09.56.56,0,0,1,.34.09.4.4,0,0,1,.12.34v6.82a.4.4,0,0,1-.12.34.56.56,0,0,1-.34.09.54.54,0,0,1-.34-.09.41.41,0,0,1-.12-.34Z"/><path d="M179.46,50.51a.41.41,0,0,1,.12-.34.54.54,0,0,1,.34-.09.56.56,0,0,1,.34.09.4.4,0,0,1,.12.34v6.82a.4.4,0,0,1-.12.34.56.56,0,0,1-.34.09.54.54,0,0,1-.34-.09.41.41,0,0,1-.12-.34Z"/><path d="M184.24,50.51a.41.41,0,0,1,.12-.34.54.54,0,0,1,.34-.09.56.56,0,0,1,.34.09.4.4,0,0,1,.12.34v6.82a.4.4,0,0,1-.12.34.56.56,0,0,1-.34.09.54.54,0,0,1-.34-.09.41.41,0,0,1-.12-.34Z"/><path d="M186.3,50.66a.57.57,0,0,1,.17-.44.63.63,0,0,1,.84,0,.66.66,0,0,1,0,.88.63.63,0,0,1-.84,0A.57.57,0,0,1,186.3,50.66Zm.13,1.93a.41.41,0,0,1,.12-.34.54.54,0,0,1,.34-.09.56.56,0,0,1,.34.09.4.4,0,0,1,.12.34v4.73a.4.4,0,0,1-.12.34.56.56,0,0,1-.34.09.54.54,0,0,1-.34-.09.41.41,0,0,1-.12-.34Z"/><path d="M190.63,50.72a.78.78,0,0,0-.52.17.82.82,0,0,0-.21.65v.69h1a.34.34,0,0,1,.29.1.58.58,0,0,1,0,.58.34.34,0,0,1-.29.1h-1v4.31a.4.4,0,0,1-.12.34.56.56,0,0,1-.34.09.54.54,0,0,1-.34-.09.41.41,0,0,1-.12-.34V53h-.5a.34.34,0,0,1-.29-.1.58.58,0,0,1,0-.58.34.34,0,0,1,.29-.1h.5v-.76a1.48,1.48,0,0,1,.42-1.09,1.65,1.65,0,0,1,1.22-.42,2.1,2.1,0,0,1,.45,0,1.77,1.77,0,0,1,.39.13,1,1,0,0,1,.28.19.33.33,0,0,1,.11.24.46.46,0,0,1-.11.31.34.34,0,0,1-.44.08l-.17-.1-.21-.1A.7.7,0,0,0,190.63,50.72Z"/><path d="M194.24,52.05a2.51,2.51,0,0,1,1.91.75,2.82,2.82,0,0,1,.72,2q0,.39-.44.39h-4a2.06,2.06,0,0,0,.59,1.31,1.68,1.68,0,0,0,1.23.52,1.92,1.92,0,0,0,1.55-.71.78.78,0,0,1,.18-.18.34.34,0,0,1,.18,0,.46.46,0,0,1,.31.11.36.36,0,0,1,.13.28.57.57,0,0,1-.12.31,2.28,2.28,0,0,1-.93.79,3.06,3.06,0,0,1-1.31.27,2.64,2.64,0,0,1-1.44-.4,2.75,2.75,0,0,1-1-1.06,3.06,3.06,0,0,1-.35-1.44,3,3,0,0,1,.38-1.5,2.75,2.75,0,0,1,1-1A2.68,2.68,0,0,1,194.24,52.05Zm0,.8a1.7,1.7,0,0,0-1.16.42,2,2,0,0,0-.62,1.13h3.47a1.77,1.77,0,0,0-.53-1.15A1.65,1.65,0,0,0,194.24,52.86Z"/><path d="M198.09,52.47a.31.31,0,0,1-.14.1l-.1,0a.4.4,0,0,1-.24-.08.23.23,0,0,1-.1-.2.42.42,0,0,1,0-.11.54.54,0,0,1,.1-.17q.12-.15.24-.34a.9.9,0,0,0,.14-.41.58.58,0,0,1-.39-.18.55.55,0,0,1-.15-.39.64.64,0,0,1,1.1-.45.81.81,0,0,1,.19.59,1.9,1.9,0,0,1-.09.6,2.79,2.79,0,0,1-.21.49,2.63,2.63,0,0,1-.23.35Z"/><path d="M199.12,57.34a.65.65,0,0,1-.17-.19.38.38,0,0,1,0-.18.53.53,0,0,1,.13-.34.4.4,0,0,1,.31-.16.47.47,0,0,1,.2,0l.21.13a3.63,3.63,0,0,0,.53.29,2,2,0,0,0,.87.16,1.47,1.47,0,0,0,.88-.23.73.73,0,0,0,.31-.62,1.11,1.11,0,0,0,0-.27.57.57,0,0,0-.15-.25,1,1,0,0,0-.33-.21,2.46,2.46,0,0,0-.59-.15l-.66-.11a2.24,2.24,0,0,1-1.16-.5,1.37,1.37,0,0,1-.45-1.1,1.4,1.4,0,0,1,.57-1.19,2.54,2.54,0,0,1,1.55-.42,4.2,4.2,0,0,1,.75.06,2.91,2.91,0,0,1,.54.15,2.06,2.06,0,0,1,.36.18l.22.16a.48.48,0,0,1,.21.35.5.5,0,0,1-.1.31.35.35,0,0,1-.3.14.51.51,0,0,1-.22,0l-.24-.14q-.21-.12-.49-.25a1.85,1.85,0,0,0-.75-.13,1.39,1.39,0,0,0-.86.22.67.67,0,0,0-.28.55,1.11,1.11,0,0,0,0,.27.56.56,0,0,0,.14.24.87.87,0,0,0,.3.2,2,2,0,0,0,.54.13l.67.11a2.24,2.24,0,0,1,1.25.52,1.46,1.46,0,0,1,.42,1.11,1.51,1.51,0,0,1-.55,1.24,2.45,2.45,0,0,1-1.58.45,4.65,4.65,0,0,1-.74-.05,4.16,4.16,0,0,1-.59-.14,2.43,2.43,0,0,1-.42-.17Z"/><path d="M207.81,54.43l2.61-2.13.15-.1a.29.29,0,0,1,.16,0,.42.42,0,0,1,.31.12.38.38,0,0,1,.12.28.45.45,0,0,1,0,.14.44.44,0,0,1-.15.18l-1.53,1.27,1.94,2.93a.64.64,0,0,1,.08.17.54.54,0,0,1,0,.11.36.36,0,0,1-.18.29.67.67,0,0,1-.36.11.38.38,0,0,1-.17,0,.53.53,0,0,1-.17-.19l-1.87-2.84-.92.78v1.86a.4.4,0,0,1-.12.34.56.56,0,0,1-.34.09.54.54,0,0,1-.34-.09.41.41,0,0,1-.12-.34V50.51a.41.41,0,0,1,.12-.34.54.54,0,0,1,.34-.09.56.56,0,0,1,.34.09.4.4,0,0,1,.12.34Z"/><path d="M212.17,50.66a.57.57,0,0,1,.17-.44.63.63,0,0,1,.84,0,.66.66,0,0,1,0,.88.63.63,0,0,1-.84,0A.57.57,0,0,1,212.17,50.66Zm.13,1.93a.41.41,0,0,1,.12-.34.54.54,0,0,1,.34-.09.56.56,0,0,1,.34.09.4.4,0,0,1,.12.34v4.73a.4.4,0,0,1-.12.34.56.56,0,0,1-.34.09.54.54,0,0,1-.34-.09.41.41,0,0,1-.12-.34Z"/><path d="M214.35,53a.34.34,0,0,1-.29-.1.58.58,0,0,1,0-.58.34.34,0,0,1,.29-.1h.49V51.12a.9.9,0,0,1,0-.3.37.37,0,0,1,.16-.17.8.8,0,0,1,.42-.12q.3,0,.3.31v1.4h1a.35.35,0,0,1,.29.1.58.58,0,0,1,0,.58.34.34,0,0,1-.29.1h-1v3.21a1,1,0,0,0,.15.65.61.61,0,0,0,.49.17.67.67,0,0,0,.22,0l.17-.06.15-.07a.4.4,0,0,1,.17,0,.34.34,0,0,1,.27.13.46.46,0,0,1,.11.31q0,.26-.34.41a2.13,2.13,0,0,1-.85.15,1.5,1.5,0,0,1-1.11-.36,1.45,1.45,0,0,1-.36-1.06V53Z"/><path d="M134.1,5.93V19.81a1.5,1.5,0,0,1-.4,1,1.88,1.88,0,0,1-1.43.44q-1.88,0-1.88-1.48V5.93h-4.47a1.2,1.2,0,0,1-1.08-.48,2,2,0,0,1-.32-1.11,1.9,1.9,0,0,1,.33-1.11,1.15,1.15,0,0,1,1-.48h13a1.16,1.16,0,0,1,1,.48,1.85,1.85,0,0,1,.34,1.11,2,2,0,0,1-.32,1.11,1.2,1.2,0,0,1-1.08.48Z"/><path d="M144.29,7.07a6.69,6.69,0,0,1,3.48.89A5.89,5.89,0,0,1,150,10.4a7.77,7.77,0,0,1,.79,3.57,1.21,1.21,0,0,1-.42,1,2.27,2.27,0,0,1-1.35.32h-8.25a3.58,3.58,0,0,0,1.28,2.26,4.06,4.06,0,0,0,2.6.81,5.37,5.37,0,0,0,2.64-.69,5.61,5.61,0,0,1,.87-.41,2.09,2.09,0,0,1,.63-.09,1.33,1.33,0,0,1,1,.48,1.51,1.51,0,0,1,.45,1.06,1.66,1.66,0,0,1-.25,1,3.15,3.15,0,0,1-.91.79,6.71,6.71,0,0,1-2,.81,10.28,10.28,0,0,1-2.42.28,8.2,8.2,0,0,1-4-.94A6.49,6.49,0,0,1,138.09,18a7.53,7.53,0,0,1-.91-3.73,7.52,7.52,0,0,1,1-3.82A6.58,6.58,0,0,1,140.69,8,7.34,7.34,0,0,1,144.29,7.07Zm0,3a3.45,3.45,0,0,0-2.12.65A3.38,3.38,0,0,0,141,12.59h6.21a3.1,3.1,0,0,0-1-1.84A2.78,2.78,0,0,0,144.29,10.08Z"/><path d="M164,19.83a1.42,1.42,0,0,1-.38,1.11,2,2,0,0,1-1.31.34A2.12,2.12,0,0,1,161,21a1.29,1.29,0,0,1-.46-1.12v-.48a9.67,9.67,0,0,1-.65.74,3.77,3.77,0,0,1-.87.66,5.18,5.18,0,0,1-1.2.48,6.14,6.14,0,0,1-1.59.19,4.7,4.7,0,0,1-3.29-1.1,3.76,3.76,0,0,1-1.2-2.92,4.12,4.12,0,0,1,.36-1.8,3.57,3.57,0,0,1,1-1.24,4.81,4.81,0,0,1,1.45-.79,10.93,10.93,0,0,1,1.76-.45q1-.18,2-.29t2.21-.18v-.5a2.93,2.93,0,0,0-.11-.78,2,2,0,0,0-.36-.7,1.69,1.69,0,0,0-.7-.5,2.93,2.93,0,0,0-1.11-.18,5.36,5.36,0,0,0-.78.05,3.58,3.58,0,0,0-.69.17,4.07,4.07,0,0,0-.69.33l-.81.5a6.15,6.15,0,0,1-.65.4,1.62,1.62,0,0,1-.75.16A1.6,1.6,0,0,1,152.33,10a1.68,1.68,0,0,1,.37-1,3.53,3.53,0,0,1,1.12-1,7.57,7.57,0,0,1,1.85-.73,10.13,10.13,0,0,1,2.58-.29,6.51,6.51,0,0,1,4.38,1.19A4.71,4.71,0,0,1,164,12Zm-3.44-5q-1,.11-1.92.24t-1.36.24a2.85,2.85,0,0,0-1.65.75,1.6,1.6,0,0,0-.38,1,1.37,1.37,0,0,0,.42,1.07,2.16,2.16,0,0,0,1.45.38,3.84,3.84,0,0,0,2.54-.75,2.42,2.42,0,0,0,.9-1.94Z"/><path d="M173.69,7.07a5.19,5.19,0,0,1,2.42.52,3.65,3.65,0,0,1,1.57,1.68,4.61,4.61,0,0,1,1.84-1.68,5.7,5.7,0,0,1,2.5-.52,5.29,5.29,0,0,1,2.29.44,4.5,4.5,0,0,1,1.57,1.26,4,4,0,0,1,.82,2,17.42,17.42,0,0,1,.13,2.08v7a1.31,1.31,0,0,1-.45,1.11,2.26,2.26,0,0,1-1.37.34,2.38,2.38,0,0,1-1.31-.33,1.23,1.23,0,0,1-.52-1.12V12.91a4.41,4.41,0,0,0-.24-1.69,1.39,1.39,0,0,0-.73-.74,3,3,0,0,0-1.18-.21,2.77,2.77,0,0,0-1.15.21,2.16,2.16,0,0,0-.74.53,2.33,2.33,0,0,0-.42.69,5.63,5.63,0,0,0-.22.69,4.51,4.51,0,0,0-.15,1.11q0,.63,0,1.06v5.29a1.31,1.31,0,0,1-.45,1.11,2.26,2.26,0,0,1-1.37.34,2.38,2.38,0,0,1-1.31-.33,1.23,1.23,0,0,1-.52-1.12V12.91a4.41,4.41,0,0,0-.24-1.69,1.39,1.39,0,0,0-.73-.74,3,3,0,0,0-1.18-.21,2.62,2.62,0,0,0-1.15.22,2.21,2.21,0,0,0-.74.55,2.52,2.52,0,0,0-.42.7,5.63,5.63,0,0,0-.22.69,4.4,4.4,0,0,0-.15,1.08q0,.61,0,1v5.21a1.44,1.44,0,0,1-.44,1.18,2.29,2.29,0,0,1-1.44.36,2.17,2.17,0,0,1-1.3-.34,1.31,1.31,0,0,1-.48-1.14V8.89a1.66,1.66,0,0,1,.41-1.16A1.85,1.85,0,0,1,168,7.28a2.4,2.4,0,0,1,1.22.3,1.3,1.3,0,0,1,.53,1.23v.32a4.94,4.94,0,0,1,1.44-1.43A4.34,4.34,0,0,1,173.69,7.07Z"/><path d="M130.82,34.83,128.66,37v4.81a1.72,1.72,0,0,1-.37,1.08,1.77,1.77,0,0,1-1.45.48q-1.88,0-1.88-1.56V26.18a1.26,1.26,0,0,1,.52-1.14,2.42,2.42,0,0,1,1.36-.34,2.3,2.3,0,0,1,1.32.34,1.28,1.28,0,0,1,.5,1.14V32.6l6.5-6.87a6.62,6.62,0,0,1,.77-.66,1.52,1.52,0,0,1,.93-.29,1.83,1.83,0,0,1,.73.13,2.55,2.55,0,0,1,.57.34,1.5,1.5,0,0,1,.56,1.19,1.43,1.43,0,0,1-.17.63,2.46,2.46,0,0,1-.46.63l-4.52,4.76,5.9,8.46a1.5,1.5,0,0,1-.29,2,2.14,2.14,0,0,1-1.48.48,1.71,1.71,0,0,1-1-.29,3.09,3.09,0,0,1-.75-.79Z"/><path d="M148.81,29.19a5.29,5.29,0,0,1,2.29.44,4.5,4.5,0,0,1,1.57,1.26,4,4,0,0,1,.82,2,17.42,17.42,0,0,1,.13,2.08v7a1.31,1.31,0,0,1-.45,1.11,2.26,2.26,0,0,1-1.37.34,2.38,2.38,0,0,1-1.31-.33A1.23,1.23,0,0,1,150,42V35a4.42,4.42,0,0,0-.24-1.69,1.39,1.39,0,0,0-.73-.74,3.39,3.39,0,0,0-2.39,0,2.93,2.93,0,0,0-.85.55,2.57,2.57,0,0,0-.53.7,3.39,3.39,0,0,0-.26.69,4.4,4.4,0,0,0-.15,1.08q0,.61,0,1v5.21a1.44,1.44,0,0,1-.44,1.18,2.29,2.29,0,0,1-1.44.36,2.17,2.17,0,0,1-1.3-.34,1.31,1.31,0,0,1-.48-1.14V31a1.66,1.66,0,0,1,.41-1.16,1.85,1.85,0,0,1,1.41-.45,2.4,2.4,0,0,1,1.22.3,1.3,1.3,0,0,1,.53,1.23v.32a4.92,4.92,0,0,1,1.6-1.44A4.75,4.75,0,0,1,148.81,29.19Z"/><path d="M162.5,29.19a7.39,7.39,0,0,1,3.81,1,7,7,0,0,1,2.62,2.64,7.26,7.26,0,0,1,.93,3.61,7.13,7.13,0,0,1-1,3.75,7,7,0,0,1-2.67,2.58,7.52,7.52,0,0,1-3.67.91,7.39,7.39,0,0,1-3.81-1A7,7,0,0,1,156.08,40a7.26,7.26,0,0,1-.93-3.61,7.12,7.12,0,0,1,1-3.75,7,7,0,0,1,2.67-2.58A7.52,7.52,0,0,1,162.5,29.19Zm0,3.28a3.52,3.52,0,0,0-2.68,1.11,4.42,4.42,0,0,0,0,5.71,3.78,3.78,0,0,0,5.37,0,4,4,0,0,0,1-2.87,4,4,0,0,0-1-2.83A3.52,3.52,0,0,0,162.5,32.47Z"/><path d="M187.62,29.46a2.1,2.1,0,0,1,1.45.44,1.43,1.43,0,0,1,.48,1.1,3.07,3.07,0,0,1,0,.45,2.48,2.48,0,0,1-.17.58L185.85,42.2a1.94,1.94,0,0,1-.56.82,2.11,2.11,0,0,1-1.45.4,2.15,2.15,0,0,1-1.47-.37,1.85,1.85,0,0,1-.52-.85l-2-7.56L178,42.12a1.48,1.48,0,0,1-.7,1,2.66,2.66,0,0,1-1.36.32,2.16,2.16,0,0,1-1.44-.37,2,2,0,0,1-.57-.82L170.43,32a4.39,4.39,0,0,1-.17-.63,2.47,2.47,0,0,1,0-.4,1.31,1.31,0,0,1,.53-1.11,2.38,2.38,0,0,1,1.45-.4,2.11,2.11,0,0,1,1.08.26,1.6,1.6,0,0,1,.66,1l1.72,6.21q.08.29.19.9t.16,1a14.23,14.23,0,0,1,.34-1.8L178,30.65q.32-1.19,1.88-1.19a3.43,3.43,0,0,1,.87.09,1.63,1.63,0,0,1,.55.25,1,1,0,0,1,.32.38,4.27,4.27,0,0,1,.18.46l1.8,6.64a7,7,0,0,1,.18,1q.05.45.11.74l.13-.77q.08-.45.21-1l1.69-6.53a1.5,1.5,0,0,1,.62-1A2,2,0,0,1,187.62,29.46Z"/><path d="M212.28,29.19a7.39,7.39,0,0,1,3.81,1,7,7,0,0,1,2.62,2.64,7.26,7.26,0,0,1,.93,3.61,7.13,7.13,0,0,1-1,3.75A7,7,0,0,1,216,42.77a7.52,7.52,0,0,1-3.67.91,7.39,7.39,0,0,1-3.81-1A7,7,0,0,1,205.86,40a7.26,7.26,0,0,1-.93-3.61,7.12,7.12,0,0,1,1-3.75,7,7,0,0,1,2.67-2.58A7.52,7.52,0,0,1,212.28,29.19Zm0,3.28a3.52,3.52,0,0,0-2.68,1.11,4.42,4.42,0,0,0,0,5.71,3.78,3.78,0,0,0,5.37,0,4,4,0,0,0,1-2.87,4,4,0,0,0-1-2.83A3.52,3.52,0,0,0,212.28,32.47Z"/><path d="M237.4,29.46a2.1,2.1,0,0,1,1.45.44,1.43,1.43,0,0,1,.48,1.1,3.07,3.07,0,0,1,0,.45,2.48,2.48,0,0,1-.17.58L235.63,42.2a1.94,1.94,0,0,1-.56.82,2.11,2.11,0,0,1-1.45.4,2.15,2.15,0,0,1-1.47-.37,1.85,1.85,0,0,1-.52-.85l-2-7.56-1.82,7.48a1.48,1.48,0,0,1-.7,1,2.66,2.66,0,0,1-1.36.32A2.16,2.16,0,0,1,224.3,43a2,2,0,0,1-.57-.82L220.22,32a4.39,4.39,0,0,1-.17-.63,2.47,2.47,0,0,1,0-.4,1.31,1.31,0,0,1,.53-1.11,2.38,2.38,0,0,1,1.45-.4,2.11,2.11,0,0,1,1.08.26,1.6,1.6,0,0,1,.66,1l1.72,6.21q.08.29.19.9t.16,1a14.23,14.23,0,0,1,.34-1.8l1.64-6.34q.32-1.19,1.88-1.19a3.43,3.43,0,0,1,.87.09,1.63,1.63,0,0,1,.55.25,1,1,0,0,1,.32.38,4.27,4.27,0,0,1,.18.46l1.8,6.64a7,7,0,0,1,.18,1q.05.45.11.74l.13-.77q.08-.45.21-1l1.69-6.53a1.5,1.5,0,0,1,.62-1A2,2,0,0,1,237.4,29.46Z"/><path d="M198.62,29.19a5.19,5.19,0,0,1,2.29.44,4.57,4.57,0,0,1,1.55,1.26,4,4,0,0,1,.82,2A17.42,17.42,0,0,1,203.4,35v7a1.31,1.31,0,0,1-.45,1.11,2.26,2.26,0,0,1-1.37.34,2.38,2.38,0,0,1-1.31-.33,1.23,1.23,0,0,1-.52-1.12V35a4.42,4.42,0,0,0-.24-1.69,1.39,1.39,0,0,0-.73-.74,3,3,0,0,0-1.18-.21,3.16,3.16,0,0,0-1.2.21,2.85,2.85,0,0,0-.86.53,2.38,2.38,0,0,0-.53.69,3.39,3.39,0,0,0-.26.69,4.4,4.4,0,0,0-.15,1.08q0,.61,0,1v5.26a1.44,1.44,0,0,1-.44,1.18,2.29,2.29,0,0,1-1.44.36,2.17,2.17,0,0,1-1.3-.34,1.31,1.31,0,0,1-.48-1.14V26.18a1.38,1.38,0,0,1,.44-1.1,2.17,2.17,0,0,1,1.44-.38,3.24,3.24,0,0,1,.66.07,1.71,1.71,0,0,1,.57.22,1.1,1.1,0,0,1,.4.45,1.73,1.73,0,0,1,.15.77v4.94a5.42,5.42,0,0,1,1.53-1.33A4.64,4.64,0,0,1,198.62,29.19Z"/><path d="M219.66,52.41a.13.13,0,0,1,0,.12.29.29,0,0,1-.27,0,.13.13,0,0,1,0-.12V50.3h-.86a.17.17,0,0,1-.12,0,.14.14,0,0,1,0-.1.14.14,0,0,1,0-.1.17.17,0,0,1,.12,0h2.09a.17.17,0,0,1,.12,0,.14.14,0,0,1,0,.1.15.15,0,0,1,0,.1.17.17,0,0,1-.12,0h-.86Z"/><path d="M221.38,50.57v1.85a.12.12,0,0,1,0,.11.24.24,0,0,1-.13,0,.23.23,0,0,1-.13,0,.12.12,0,0,1,0-.11V50.19a.16.16,0,0,1,.06-.15.41.41,0,0,1,.34,0,.25.25,0,0,1,.09.1l1,2,1-2a.25.25,0,0,1,.08-.1.39.39,0,0,1,.33,0,.17.17,0,0,1,.06.15v2.23a.12.12,0,0,1,0,.11.23.23,0,0,1-.13,0,.24.24,0,0,1-.13,0,.12.12,0,0,1,0-.11V50.56l-.89,1.84a.23.23,0,0,1-.07.09.28.28,0,0,1-.27,0,.24.24,0,0,1-.07-.09Z"/></g></svg>