<?xml version="1.0" encoding="UTF-8" standalone="no"?>
<svg width="85px" height="63px" viewBox="0 0 85 63" version="1.1" xmlns="http://www.w3.org/2000/svg" xmlns:xlink="http://www.w3.org/1999/xlink">
    <!-- Generator: Sketch 43.1 (39012) - http://www.bohemiancoding.com/sketch -->
    <title>icon_logo_homepage</title>
    <desc>Created with Sketch.</desc>
    <defs>
        <polygon id="path-1" points="0.000751464728 0.719000616 0.000751464728 15.2396814 12.5930459 15.2396814 12.5930459 0.719000616 0.000751464728 0.719000616"></polygon>
    </defs>
    <g id="Symbols" stroke="none" stroke-width="1" fill="none" fill-rule="evenodd">
        <g id="Footer/1600" transform="translate(-95.000000, -36.000000)">
            <g id="icon_logo_homepage" transform="translate(95.000000, 37.000000)">
                <path d="M54.9050939,3.26625627 C54.8434738,3.30147518 54.8156696,3.37491035 54.8374621,3.44160147 C54.8592546,3.5082926 54.9253835,3.55175423 54.9952697,3.5435115 C55.0110505,3.54201283 56.5831147,3.38090506 59.164396,3.85748432 C69.285123,5.73382784 74.8902984,12.5123436 74.9459067,12.5797841 C74.98348,12.6254937 75.0428457,12.6449765 75.099957,12.6299898 C75.1570683,12.6157523 75.1999018,12.5692933 75.2096709,12.5115943 C75.2126767,12.4898635 75.6041898,10.3220273 77.624127,8.31080283 C79.6252776,6.31606383 81.6459662,5.70385431 81.6662558,5.6978596 C81.7211127,5.68137415 81.7616918,5.6356645 81.7714609,5.57946412 C81.7804784,5.52401307 81.757183,5.46706335 81.7113437,5.43409246 C81.6429604,5.38538546 74.8391988,0.584373894 67.1344309,0.512437401 C59.9316415,0.442748924 54.9546906,3.23778141 54.9050939,3.26625627" id="Fill-1" fill="#099146"></path>
                <path d="M54.523425,3.70199659 C54.4738283,3.7079913 54.4309948,3.7372155 54.4084509,3.78142647 C54.3851555,3.82563744 54.385907,3.87809113 54.4092024,3.92155276 L58.4618516,11.3355076 C59.1554536,12.6063856 63.6326804,20.0750421 63.6777683,20.1507253 C63.7070754,20.1994323 63.7619324,20.2271578 63.8190437,20.2226618 C63.8754035,20.2174164 63.9250002,20.1806988 63.9460412,20.1274958 C63.9475441,20.1229998 64.1309015,19.665154 64.9251998,18.7254835 C68.9207377,14.0031525 74.2343448,14.2489355 74.2876988,14.2519329 C74.3440586,14.2549302 74.3981641,14.225706 74.4259683,14.1755004 C74.4537725,14.126044 74.4515181,14.0645983 74.4184537,14.0173899 C74.3883951,13.9739283 71.3043838,9.60303702 66.081704,6.80575652 C59.3433198,3.18495305 54.5707673,3.69600188 54.523425,3.70199659" id="Fill-3" fill="#FDD400"></path>
                <path d="M53.965237,4.04699202 C53.9456989,4.07022151 53.4910628,4.62398264 53.1048099,5.32236609 C47.5612546,15.379987 51.1607707,25.2667587 51.1975924,25.3656714 C51.2186334,25.4203731 51.2689816,25.4578401 51.3275958,25.4615867 C51.3862101,25.4660828 51.4418185,25.4353599 51.4696227,25.3844049 C51.471877,25.3791595 51.7664512,24.8478785 52.6509252,24.0685665 C56.7757151,20.4282803 62.3312938,20.9655559 62.3861507,20.9715507 C62.4410077,20.9775454 62.4943617,20.9528172 62.5251717,20.9078569 C62.5559818,20.8621472 62.5604906,20.8044482 62.5349408,20.7549918 L58.4146597,12.7460623 C57.6917506,11.3380553 54.2500421,4.14965139 54.2154748,4.0777149 C54.1936823,4.03200525 54.1493459,3.9997837 54.0989977,3.99378899 C54.0478981,3.98779428 53.99755,4.00802642 53.965237,4.04699202" id="Fill-5" fill="#1E9DD8"></path>
                <path d="M53.4477784,3.96523919 C53.3906671,3.99521273 47.6765293,7.01954279 43.7050382,13.7913145 C39.4615169,21.0291748 40.3647775,27.0635975 40.3745465,27.1235445 C40.3835641,27.1782462 40.4211374,27.2224572 40.472237,27.2411907 C40.5233366,27.2591748 40.5811993,27.2479347 40.6217784,27.2119665 C40.6435709,27.1924837 42.867155,25.2591904 46.7093942,25.2711798 C48.9337298,25.2749265 49.737797,25.725279 49.7453117,25.729775 C49.7994172,25.7604979 49.8678004,25.7552525 49.9158942,25.7155376 C49.951213,25.6863134 49.9707511,25.6443504 49.9707511,25.6001394 C49.9707511,25.5844033 49.9677453,25.5679179 49.962485,25.5521818 C49.9452013,25.5004774 49.0141365,22.7294238 49.0141365,18.6680093 C49.0141365,15.1423718 49.7152531,10.644093 52.3235872,6.10834721 C52.9217531,5.07950549 53.626627,4.19903279 53.6333902,4.19079007 C53.6551827,4.16306455 53.6664546,4.13009366 53.6664546,4.09712276 C53.6664546,4.06340253 53.6551827,4.03043164 53.6326387,4.00270612 C53.5875508,3.94800441 53.5109014,3.9322683 53.4477784,3.96523919" id="Fill-7" fill="#E21E25"></path>
                <path d="M60.3160157,42.666323 C59.5976154,43.2298256 58.5342928,43.5145742 57.6708599,43.5145742 C55.7869378,43.5145742 54.1660284,42.0765937 54.1660284,39.8997654 C54.1660284,38.7959898 54.5988721,38.085617 55.3368104,37.5018823 C56.5895021,39.3549963 58.498974,41.1047017 60.5745196,42.4587563 C60.4926099,42.5344395 60.4046885,42.5996319 60.3160157,42.666323 L60.3160157,42.666323 Z M57.3920665,31.0650649 C58.498974,31.0650649 58.8762093,31.9425402 58.8762093,32.929419 C58.8762093,34.2250252 57.806875,34.9084219 56.7480612,35.3857505 C56.2145212,34.4475787 55.9026634,33.5446259 55.9026634,32.7226016 C55.9026634,31.8945826 56.5113498,31.0650649 57.3920665,31.0650649 L57.3920665,31.0650649 Z M67.7750546,44.4460019 C66.4524767,44.0503512 64.5941044,42.9825439 62.7222058,41.5992651 C63.0821574,41.012533 63.4052872,40.377094 63.675063,39.7214229 C64.2657143,38.278197 64.538496,37.547592 65.8798605,37.4112124 L65.8798605,36.7915094 C65.1516912,36.825979 64.3942148,36.8379684 63.6284722,36.8379684 C62.8988,36.8379684 62.1623645,36.825979 61.4236747,36.7915094 L61.4236747,37.4112124 C61.9241502,37.5273598 62.4531814,37.5723201 62.9491481,37.7199398 C62.9491481,38.2954318 62.6267697,39.307788 62.344219,39.9904354 C62.1939261,40.319395 62.0293553,40.6303704 61.8520096,40.9248604 C60.1364156,39.5520724 58.4959681,37.9402453 57.3755342,36.3568931 C58.9896805,35.5993119 60.8751055,34.6836203 60.8751055,32.7428337 C60.8751055,30.888221 59.532238,29.9268197 57.6535762,29.9268197 C55.5960658,29.9268197 53.8744601,31.428494 53.8744601,33.363286 C53.8744601,34.3359273 54.1607681,35.3340461 54.6447114,36.3141808 C52.7848362,37.2486059 51.5321445,38.3890991 51.5321445,40.5224657 C51.5321445,43.6307216 54.0480484,45.1473827 56.8510119,45.1473827 C58.8762093,45.1473827 60.4099488,44.3425932 61.5965116,43.0852032 C63.7096304,44.311121 65.9009016,45.1076678 67.6638378,45.1796043 L67.7750546,44.4460019 Z" id="Fill-9" fill="#020302"></path>
                <path d="M59.9825157,54.8814393 C59.8239566,54.2864645 59.5323883,53.6023185 58.8094792,53.6023185 C58.2639158,53.6023185 57.6184076,54.0654097 57.2020962,54.4175988 L57.2020962,59.4628947 C57.2020962,61.0987005 57.9122303,60.871651 59.2265421,61.0117773 L59.2265421,61.6539603 C58.0707894,61.6539603 56.8909898,61.606752 55.7435031,61.606752 C54.8793187,61.606752 54.0241518,61.606752 53.1547072,61.6539603 L53.1547072,61.0117773 L54.5343964,60.7892237 L54.5343964,54.6896086 C54.5343964,53.9702437 54.4742792,53.3745196 53.5552379,53.3745196 C53.3748863,53.3745196 53.2065582,53.3745196 53.0292125,53.3925037 L53.0292125,52.7683048 C53.701022,52.607197 54.3758373,52.4318518 55.0476468,52.259504 C55.5037859,52.1238737 56.108715,51.9043175 56.5460675,51.9043175 C57.2178769,51.9043175 57.2020962,52.7683048 57.2020962,53.2501294 L57.2020962,53.4756803 C57.8445985,52.7683048 58.8553186,51.8593572 59.8848253,51.8593572 C60.817393,51.8593572 61.5545799,52.3711554 61.5545799,53.3632795 C61.5545799,54.1770611 60.78508,54.8672018 59.9825157,54.8814393" id="Fill-11" fill="#020302"></path>
                <path d="M40.6890345,61.6064523 C39.7797622,61.6064523 38.8644782,61.6064523 37.9612176,61.6544099 L37.9612176,61.0122269 L39.2958189,60.7896733 L39.2958189,55.9856644 C39.2958189,54.9148598 39.2680147,53.5533118 37.8199422,53.5533118 C37.0947787,53.5533118 36.0029005,53.9227356 35.3784333,54.2861648 L35.3784333,59.7960505 C35.3784333,60.8256416 35.7474025,60.9178102 36.695751,61.0122269 L36.695751,61.6544099 C35.7654376,61.6544099 34.8321185,61.6064523 33.9198403,61.6064523 C33.0466383,61.6064523 32.1839568,61.6064523 31.3152635,61.6544099 L31.3152635,61.0122269 L32.6972072,60.7896733 L32.6972072,54.8017097 C32.6972072,54.0366351 32.6844323,53.3749692 31.7300721,53.3749692 C31.5534779,53.3749692 31.379138,53.3749692 31.2047982,53.392204 L31.2047982,52.7687544 C31.8773592,52.6068973 32.5499201,52.4323014 33.2247354,52.2599536 C33.8364277,52.0958484 34.3534354,51.9040178 34.7171444,51.9040178 C35.4949103,51.9040178 35.3784333,52.911878 35.3784333,53.4236762 C36.4349927,52.7844905 38.1558469,51.9040178 39.4017755,51.9040178 C40.2126059,51.9040178 40.8182865,52.0778643 41.3533294,52.7050606 C41.9980861,53.440911 41.957507,54.6570873 41.957507,55.5892644 L41.957507,59.7473435 C41.957507,61.0751713 42.6556177,60.8526178 43.6648349,61.0122269 L43.6648349,61.6544099 C42.6856763,61.6544099 41.6862282,61.6064523 40.6890345,61.6064523" id="Fill-13" fill="#020302"></path>
                <g id="Group-17" transform="translate(0.000000, 29.509803)">
                    <mask id="mask-2" fill="white">
                        <use xlink:href="#path-1"></use>
                    </mask>
                    <g id="Clip-16"></g>
                    <path d="M12.2195679,15.2396814 L0,15.2396814 L0,14.5974984 L2.26190883,14.200349 L2.26190883,3.06892605 C2.26190883,1.74259696 1.86588692,1.40689333 0.172836887,1.36043434 L0.172836887,0.719000616 L7.40042463,0.719000616 L7.40042463,1.36043434 L5.31435855,1.70962607 L5.31435855,12.8702732 C5.31435855,14.105183 5.60066661,14.24456 7.40042463,14.24456 C10.2439672,14.24456 11.2065935,13.9905342 11.8844147,11.134056 L12.5930459,11.134056 L12.2195679,15.2396814 Z" id="Fill-15" fill="#020302" mask="url(#mask-2)"></path>
                </g>
                <path d="M21.1547841,55.4156427 C20.1598448,55.4156427 19.7615685,55.6831565 19.7615685,56.7254863 L19.7615685,60.8528426 C18.2631478,61.4755428 16.4506149,61.9401327 14.254835,61.9401327 C9.83847679,61.9401327 6.90325557,58.870093 6.90325557,54.5801303 C6.90325557,50.3673494 10.2525339,46.9413739 14.6050176,46.9413739 C16.7241481,46.9413739 18.4262157,47.4539214 19.676653,47.8982791 L19.6480973,51.570787 L19.0191214,51.570787 C18.8117171,50.4475286 18.4262157,49.5018635 17.7070639,48.847691 C17.0157164,48.2392282 16.1004324,47.8945325 14.9927734,47.8945325 C11.2422129,47.8945325 10.3509757,52.2219621 10.3509757,54.7052698 C10.3509757,57.2537699 11.2632539,60.9952169 14.573456,60.9952169 C16.374717,60.9952169 16.8676778,60.433213 16.8676778,58.5583682 L16.8676778,55.6831565 L15.0852035,55.4156427 L15.0852035,54.7052698 L21.4448495,54.7052698 L21.4448495,55.4156427 L21.1547841,55.4156427 Z" id="Fill-18" fill="#020302"></path>
                <path d="M66.6003649,56.8518248 C65.1718305,56.8518248 63.1068054,57.1073492 63.1068054,59.07736 C63.1068054,60.0717322 63.5591872,60.6966804 64.6044746,60.6966804 C65.449121,60.6966804 66.1043982,60.0867189 66.3794343,59.413813 C66.5725607,58.9005161 66.6003649,58.4846333 66.6003649,57.9241281 L66.6003649,56.8518248 Z M68.7698436,61.7794745 C67.7576206,61.7794745 67.0722848,61.5853959 66.7003097,60.5520581 C66.0112166,61.5853959 64.6691006,61.8768885 63.6749127,61.8768885 C61.8766577,61.8768885 60.208406,61.1103153 60.208406,59.1290644 C60.208406,55.9571146 64.3339473,55.9248931 66.6003649,55.9248931 L66.6003649,54.7049701 C66.6003649,53.5187673 66.0420266,53.0564254 64.7848261,53.0564254 C63.9649781,53.0564254 63.0699836,53.3134485 62.3095013,53.584709 L62.3095013,52.4000049 C63.3660607,52.0957735 64.4120996,51.8897054 65.703116,51.8897054 C66.6176486,51.8897054 67.8861211,52.0777894 68.5729598,52.7379566 C69.3116497,53.4408361 69.2838455,54.3220581 69.2838455,55.2842087 L69.2838455,59.6393639 C69.2838455,60.4044384 69.5137937,61.0121519 70.2825421,61.0121519 C70.9543516,61.0121519 71.6607284,60.9492075 72.3152542,60.8885111 L72.3152542,49.9002118 C72.3152542,49.1194011 72.3047337,48.4592339 71.3556337,48.4592339 C71.1835483,48.4592339 71.0092085,48.47497 70.8243482,48.4922048 L70.8243482,47.8680059 C71.4991635,47.7136422 72.1724759,47.5338009 72.8525515,47.3607037 C73.4612379,47.1980973 73.9797485,47.0032693 74.3419545,47.0032693 C75.1159632,47.0032693 74.9994862,47.9804066 74.9994862,48.5274237 L74.9994862,59.7959756 C74.9994862,60.8375561 75.6081726,60.8885111 77.2117983,61.0121519 L77.2117983,61.654335 C74.3855395,61.654335 71.5961024,61.7794745 68.7698436,61.7794745 L68.7698436,61.7794745 Z" id="Fill-20" fill="#020302"></path>
                <path d="M38.6066506,39.9486223 C37.160081,39.9486223 35.0928016,40.2004 35.0928016,42.1719095 C35.0928016,43.1617856 35.5436804,43.804718 36.5807017,43.804718 C37.4486435,43.804718 38.1121868,43.1805191 38.3661819,42.5106105 C38.5563025,42.0123004 38.6066506,41.5776841 38.6066506,41.0186776 L38.6066506,39.9486223 Z M40.7768808,44.8755227 C39.7443682,44.8755227 39.0695529,44.6844414 38.6990808,43.6443596 C38.0084847,44.6844414 36.6648658,44.9894222 35.6571516,44.9894222 C33.869417,44.9894222 32.1876389,44.2191022 32.1876389,42.2348539 C32.1876389,39.0629042 36.3214464,39.0171946 38.6066506,39.0171946 L38.6066506,37.7995196 C38.6066506,36.6140661 38.0325316,36.1674604 36.7760826,36.1674604 C35.9539801,36.1674604 35.0432049,36.4192381 34.3022607,36.6792585 L34.3022607,35.4960531 C35.3648318,35.2068085 36.3898297,34.9939963 37.7124076,34.9939963 C38.6066506,34.9939963 39.8916553,35.1723389 40.5837543,35.8302581 C41.3059119,36.5353856 41.2690902,37.4300957 41.2690902,38.3929956 L41.2690902,42.7324147 C41.2690902,43.5004866 41.5005413,44.1254349 42.2835675,44.1254349 C42.9448565,44.1254349 43.6497304,44.0602425 44.3245457,43.9800632 L44.3245457,32.9955106 C44.3245457,32.2102039 44.3065106,31.5575301 43.3529018,31.5575301 C43.1808164,31.5575301 43.0057251,31.5919997 42.8306339,31.6047384 L42.8306339,30.961806 C43.5039463,30.8036956 44.1787616,30.6268517 44.8377961,30.4507572 C45.4457311,30.2918974 45.9574786,30.0970694 46.3489917,30.0970694 C47.1019594,30.0970694 46.9982572,31.0914416 46.9982572,31.6182265 L46.9982572,42.8890264 C46.9982572,43.9343536 47.5971746,43.9800632 49.2173326,44.1254349 L49.2173326,44.7496338 C46.3767959,44.7496338 43.5986308,44.8755227 40.7768808,44.8755227 L40.7768808,44.8755227 Z" id="Fill-22" fill="#020302"></path>
                <path d="M48.4070282,52.8372439 C46.8860636,52.8372439 46.3059328,54.5944426 46.2413068,55.8600753 L48.8263455,55.6030522 C49.5041667,55.5363611 49.9167208,55.4441925 49.9167208,54.6573871 C49.9167208,53.7596796 49.3884411,52.8372439 48.4070282,52.8372439 M52.6903771,56.6416353 L46.2082424,56.7397987 C46.2630993,59.1114549 47.2693106,60.6670816 49.8212848,60.6670816 C50.5141353,60.6670816 51.3377406,60.5202112 51.9313977,60.3283806 L51.9313977,61.161645 C50.8184785,61.6539603 49.8738873,61.8637751 48.6151839,61.8637751 C45.6025618,61.8637751 43.2730211,59.8967616 43.2730211,56.8169805 C43.2730211,53.7776637 45.5514622,51.9043175 48.5062215,51.9043175 C50.8650693,51.9043175 52.7294533,53.5191419 52.7294533,55.9252677 C52.7294533,56.1485706 52.7159269,56.406343 52.6903771,56.6416353" id="Fill-24" fill="#020302"></path>
                <path d="M28.2657445,45.196839 C27.4301158,45.196839 27.0273307,45.2792663 26.1947077,45.2792663 C25.645387,45.2792663 25.1396513,45.2283113 24.7361147,45.1016731 C24.4625815,45.3114878 24.1890484,45.8060512 24.1890484,46.1425042 C24.1890484,47.4688333 25.4763075,47.966394 27.3414429,47.966394 C29.437278,47.966394 30.6914727,47.2934881 30.6914727,46.2848785 C30.6914727,45.1676148 29.1675022,45.196839 28.2657445,45.196839 M27.5465928,36.0032054 C26.39084,36.0032054 25.8941218,36.9323851 25.8941218,38.1657962 C25.8941218,39.595534 26.2615881,41.001293 27.6893711,41.001293 C28.8488812,41.001293 29.3102805,40.1058335 29.3102805,38.8559369 C29.3102805,37.5273598 28.9435657,36.0032054 27.5465928,36.0032054 M33.0878937,35.9252742 C32.6362634,35.5895705 32.1350364,35.3190594 31.5766981,35.3190594 C31.1438544,35.3190594 30.929687,35.7649157 30.7876601,36.1013687 C31.4151332,36.6139162 31.8021375,37.5273598 31.8021375,38.3261546 C31.8021375,40.6438585 29.9069435,41.9956651 27.7059033,41.9956651 C27.2467584,41.9956651 26.7958795,41.979929 26.3427463,41.8667789 C26.1015261,42.1717596 25.7333084,42.4587563 25.3650907,42.6026293 C25.3951493,43.0717151 25.9264348,43.0971927 26.2781203,43.0971927 C27.0468687,43.0971927 27.8058481,43.0372456 28.5573128,43.0372456 C30.2443512,43.0372456 32.1350364,43.5512918 32.1350364,45.5640149 C32.1350364,48.400261 29.2644411,49.5819678 26.8266896,49.5819678 C25.1238705,49.5819678 22.4396385,48.8116478 22.4396385,46.7060067 C22.4396385,45.7423574 23.2113928,45.1016731 24.0132056,44.7329985 C23.3526681,44.3365985 23.1475183,43.5797666 23.1475183,42.8446656 C23.1475183,42.7135314 23.1625476,42.5906398 23.1813342,42.4587563 C23.8388658,42.3800757 25.0757768,42.0608576 25.4958455,41.5468114 C24.1710132,41.0335145 23.4180456,40.0091688 23.4180456,38.5854257 C23.4180456,36.1673105 25.5071175,34.9938465 27.7059033,34.9938465 C28.5280057,34.9938465 29.5026555,35.1901731 30.1925001,35.652515 C30.4517554,34.6491508 31.2392905,33.9417753 32.3018616,33.9417753 C32.7324509,33.9417753 33.646232,34.0714108 33.646232,34.6611402 C33.646232,35.1407168 33.3854737,35.5745838 33.0878937,35.9252742" id="Fill-26" fill="#020302"></path>
                <path d="M18.2209907,36.0029806 C16.7135524,36.0029806 16.1153865,37.7834088 16.051512,39.0310573 L18.6425624,38.7927677 C19.3136204,38.7283246 19.7359436,38.6129265 19.7359436,37.8471025 C19.7359436,36.9493951 19.2054095,36.0029806 18.2209907,36.0029806 M22.5073455,39.8350975 L16.0214534,39.9280155 C16.0860794,42.2839356 17.0802672,43.8530504 19.651028,43.8530504 C20.34463,43.8530504 21.1502002,43.7099267 21.7423544,43.5143494 L21.7423544,44.3363737 C20.6377012,44.8459238 19.6810866,45.0415012 18.4471816,45.0415012 C15.4285477,45.0415012 13.1027644,43.0834798 13.1027644,40.0096934 C13.1027644,36.9493951 15.3639218,35.0782969 18.3149238,35.0782969 C20.6970669,35.0782969 22.5456702,36.6938706 22.5456702,39.0947511 C22.5456702,39.3390354 22.527635,39.5953092 22.5073455,39.8350975" id="Fill-28" fill="#020302"></path>
                <path d="M26.826389,52.8372439 C25.3159449,52.8372439 24.7237907,54.5944426 24.6704367,55.8600753 L27.2464578,55.6030522 C27.9167643,55.5363611 28.3353302,55.4441925 28.3353302,54.6573871 C28.3353302,53.7596796 27.8055475,52.8372439 26.826389,52.8372439 M31.1074835,56.6416353 L24.6223429,56.7397987 C24.6907262,59.1114549 25.6871685,60.6670816 28.2579293,60.6670816 C28.9440166,60.6670816 29.7420721,60.5202112 30.3394866,60.3283806 L30.3394866,61.161645 C29.2273188,61.6539603 28.2902423,61.8637751 27.0465682,61.8637751 C24.0279343,61.8637751 21.7036539,59.8967616 21.7036539,56.8169805 C21.7036539,53.7776637 23.9587996,51.9043175 26.9203221,51.9043175 C29.2926962,51.9043175 31.1443053,53.5191419 31.1443053,55.9252677 C31.1443053,56.1485706 31.1247672,56.406343 31.1074835,56.6416353" id="Fill-30" fill="#020302"></path>
                <path d="M58.5928319,11.2643953 C58.2869858,10.7008928 54.5409341,3.8496912 54.5409341,3.8496912 C54.5409341,3.8496912 59.2368372,3.29667941 66.0112917,6.93621635 C71.2632787,9.7499823 74.2961903,14.1021401 74.2961903,14.1021401 C74.2961903,14.1021401 68.9059339,13.7904153 64.8104511,18.6288938 C63.982337,19.6097779 63.8064942,20.0736184 63.8064942,20.0736184 C63.8064942,20.0736184 59.2931971,12.5472628 58.5928319,11.2643953 L58.5928319,11.2643953 Z M52.5525585,23.9566903 C51.6312627,24.7682239 51.3381915,25.3129929 51.3381915,25.3129929 C51.3381915,25.3129929 47.6612746,15.5086484 53.2363914,5.39407778 C53.6196384,4.69944102 54.0802863,4.1419332 54.0802863,4.1419332 C54.0802863,4.1419332 57.5490474,11.3880362 58.2817255,12.8140273 C59.018161,14.2460131 62.4020066,20.8229568 62.4020066,20.8229568 C62.4020066,20.8229568 56.7772932,20.2279821 52.5525585,23.9566903 L52.5525585,23.9566903 Z M46.7099202,25.1219116 C42.7587187,25.1106715 40.5223597,27.1001652 40.5223597,27.1001652 C40.5223597,27.1001652 39.5687509,21.1429244 43.8340647,13.8668478 C47.8303541,7.05311315 53.5166877,4.09772223 53.5166877,4.09772223 C53.5166877,4.09772223 52.8050506,4.98269096 52.1941098,6.03401283 C46.4792205,15.9717396 49.8209842,25.6007389 49.8209842,25.6007389 C49.8209842,25.6007389 49.0199228,25.1264077 46.7099202,25.1219116 L46.7099202,25.1219116 Z M67.1332286,0.662005359 C74.879327,0.733941852 81.6237229,5.55443622 81.6237229,5.55443622 C81.6237229,5.55443622 79.5737271,6.15765368 77.5184711,8.20484638 C75.4369138,10.2782659 75.0619329,12.4865664 75.0619329,12.4865664 C75.0619329,12.4865664 69.4890705,5.61962866 59.1917493,3.71106358 C56.5533567,3.22399358 54.9797895,3.39559209 54.9797895,3.39559209 C54.9797895,3.39559209 59.8876057,0.591567543 67.1332286,0.662005359 L67.1332286,0.662005359 Z M78.1354236,36.0802374 C78.1354236,36.0802374 77.8633934,35.9341164 77.3328593,36.2390971 C76.8631938,36.5260938 76.9120391,36.8288265 76.9120391,36.8288265 C76.9120391,36.8288265 76.9353345,36.8715388 76.9353345,36.8775335 C77.0698466,37.0948417 77.6199188,38.0577416 77.8581331,38.6130014 C78.1083709,39.1780026 78.1662337,39.9198477 77.2900258,40.5245638 C76.8211118,40.8430327 75.9396437,41.0618395 75.2317639,40.7066531 C75.0686961,40.6302205 74.8229671,40.4436353 74.6163143,40.1558893 C74.314977,39.7385078 70.6560952,32.9637387 70.6560952,32.9637387 L64.5767456,21.7498885 C64.5767456,21.7498885 64.4317129,21.474132 64.4504995,21.3437471 C64.4805581,21.1279376 64.5384209,21.040265 64.6143188,20.9241175 C68.5640174,14.5772207 75.9186027,15.2411346 75.9186027,15.2411346 C75.9186027,15.2411346 75.8817809,14.4198596 76.0959484,13.3055933 C77.3163271,7.14977781 84.7663484,5.80471526 84.7663484,5.80471526 C84.7663484,5.80471526 81.8506652,3.4600352 77.3606635,1.8549522 C74.0932949,0.682237498 71.4331097,0.0580385544 67.3331182,0.0550412006 C62.5169807,0.0520438467 58.2877373,1.5005151 57.7962793,1.65113214 C56.4579207,2.069263 54.4627818,3.09136067 54.4627818,3.09136067 L52.6382255,0.279093402 C52.6382255,0.279093402 52.5698422,0.23638111 52.4345785,0.306818926 C52.3150956,0.371262034 52.3120898,0.460433312 52.3120898,0.460433312 L53.5069187,3.56194523 C53.5069187,3.56194523 53.074075,3.77475735 52.5397836,4.09772223 C51.5516075,4.69944102 49.9600052,5.65110088 47.450113,8.04973331 C45.9344086,9.49895391 43.7792078,12.1441187 42.1087017,15.1819368 C38.2213747,22.2751748 39.1321499,29.4725708 39.1321499,29.4725708 C39.1321499,29.4725708 42.1921143,26.2601568 46.7542566,26.3021197 C49.6225975,26.3328426 51.2885948,27.2110673 51.2885948,27.2110673 C51.2885948,27.2110673 51.9536411,26.0308592 53.2333855,24.8948621 C55.5734467,22.8124505 59.1759686,21.9372231 61.8323964,21.9589539 C62.4245506,21.9619513 62.7349055,21.9821834 62.9347951,22.0451279 C63.1008688,22.0998296 63.204571,22.2466999 63.204571,22.2466999 L73.2095723,40.5785162 C73.2095723,40.5785162 73.9798237,42.3844219 76.2161827,42.2877572 C78.393176,42.1978366 79.4895631,40.7103998 79.4895631,39.2401977 C79.4978292,38.0195253 78.3811526,36.460152 78.1662337,36.1154563 L78.1354236,36.0802374 Z" id="Fill-32" fill="#020302"></path>
                <path d="M58.5928319,11.2643953 C58.2869858,10.7008928 54.5409341,3.8496912 54.5409341,3.8496912 C54.5409341,3.8496912 59.2368372,3.29667941 66.0112917,6.93621635 C71.2632787,9.7499823 74.2961903,14.1021401 74.2961903,14.1021401 C74.2961903,14.1021401 68.9059339,13.7904153 64.8104511,18.6288938 C63.982337,19.6097779 63.8064942,20.0736184 63.8064942,20.0736184 C63.8064942,20.0736184 59.2931971,12.5472628 58.5928319,11.2643953 Z M52.5525585,23.9566903 C51.6312627,24.7682239 51.3381915,25.3129929 51.3381915,25.3129929 C51.3381915,25.3129929 47.6612746,15.5086484 53.2363914,5.39407778 C53.6196384,4.69944102 54.0802863,4.1419332 54.0802863,4.1419332 C54.0802863,4.1419332 57.5490474,11.3880362 58.2817255,12.8140273 C59.018161,14.2460131 62.4020066,20.8229568 62.4020066,20.8229568 C62.4020066,20.8229568 56.7772932,20.2279821 52.5525585,23.9566903 Z M46.7099202,25.1219116 C42.7587187,25.1106715 40.5223597,27.1001652 40.5223597,27.1001652 C40.5223597,27.1001652 39.5687509,21.1429244 43.8340647,13.8668478 C47.8303541,7.05311315 53.5166877,4.09772223 53.5166877,4.09772223 C53.5166877,4.09772223 52.8050506,4.98269096 52.1941098,6.03401283 C46.4792205,15.9717396 49.8209842,25.6007389 49.8209842,25.6007389 C49.8209842,25.6007389 49.0199228,25.1264077 46.7099202,25.1219116 Z M67.1332286,0.662005359 C74.879327,0.733941852 81.6237229,5.55443622 81.6237229,5.55443622 C81.6237229,5.55443622 79.5737271,6.15765368 77.5184711,8.20484638 C75.4369138,10.2782659 75.0619329,12.4865664 75.0619329,12.4865664 C75.0619329,12.4865664 69.4890705,5.61962866 59.1917493,3.71106358 C56.5533567,3.22399358 54.9797895,3.39559209 54.9797895,3.39559209 C54.9797895,3.39559209 59.8876057,0.591567543 67.1332286,0.662005359 Z M78.1354236,36.0802374 C78.1354236,36.0802374 77.8633934,35.9341164 77.3328593,36.2390971 C76.8631938,36.5260938 76.9120391,36.8288265 76.9120391,36.8288265 C76.9120391,36.8288265 76.9353345,36.8715388 76.9353345,36.8775335 C77.0698466,37.0948417 77.6199188,38.0577416 77.8581331,38.6130014 C78.1083709,39.1780026 78.1662337,39.9198477 77.2900258,40.5245638 C76.8211118,40.8430327 75.9396437,41.0618395 75.2317639,40.7066531 C75.0686961,40.6302205 74.8229671,40.4436353 74.6163143,40.1558893 C74.314977,39.7385078 70.6560952,32.9637387 70.6560952,32.9637387 L64.5767456,21.7498885 C64.5767456,21.7498885 64.4317129,21.474132 64.4504995,21.3437471 C64.4805581,21.1279376 64.5384209,21.040265 64.6143188,20.9241175 C68.5640174,14.5772207 75.9186027,15.2411346 75.9186027,15.2411346 C75.9186027,15.2411346 75.8817809,14.4198596 76.0959484,13.3055933 C77.3163271,7.14977781 84.7663484,5.80471526 84.7663484,5.80471526 C84.7663484,5.80471526 81.8506652,3.4600352 77.3606635,1.8549522 C74.0932949,0.682237498 71.4331097,0.0580385544 67.3331182,0.0550412006 C62.5169807,0.0520438467 58.2877373,1.5005151 57.7962793,1.65113214 C56.4579207,2.069263 54.4627818,3.09136067 54.4627818,3.09136067 L52.6382255,0.279093402 C52.6382255,0.279093402 52.5698422,0.23638111 52.4345785,0.306818926 C52.3150956,0.371262034 52.3120898,0.460433312 52.3120898,0.460433312 L53.5069187,3.56194523 C53.5069187,3.56194523 53.074075,3.77475735 52.5397836,4.09772223 C51.5516075,4.69944102 49.9600052,5.65110088 47.450113,8.04973331 C45.9344086,9.49895391 43.7792078,12.1441187 42.1087017,15.1819368 C38.2213747,22.2751748 39.1321499,29.4725708 39.1321499,29.4725708 C39.1321499,29.4725708 42.1921143,26.2601568 46.7542566,26.3021197 C49.6225975,26.3328426 51.2885948,27.2110673 51.2885948,27.2110673 C51.2885948,27.2110673 51.9536411,26.0308592 53.2333855,24.8948621 C55.5734467,22.8124505 59.1759686,21.9372231 61.8323964,21.9589539 C62.4245506,21.9619513 62.7349055,21.9821834 62.9347951,22.0451279 C63.1008688,22.0998296 63.204571,22.2466999 63.204571,22.2466999 L73.2095723,40.5785162 C73.2095723,40.5785162 73.9798237,42.3844219 76.2161827,42.2877572 C78.393176,42.1978366 79.4895631,40.7103998 79.4895631,39.2401977 C79.4978292,38.0195253 78.3811526,36.460152 78.1662337,36.1154563 L78.1354236,36.0802374 Z" id="Stroke-34" stroke="#020302" stroke-width="0.559999957"></path>
            </g>
        </g>
    </g>
</svg>