<?xml version="1.0" encoding="utf-8"?>
<!-- Generator: Adobe Illustrator 18.1.1, SVG Export Plug-In . SVG Version: 6.00 Build 0)  -->
<svg version="1.1" id="Layer_1" xmlns="http://www.w3.org/2000/svg" xmlns:xlink="http://www.w3.org/1999/xlink" x="0px" y="0px"
	 viewBox="0 0 487.7 424.9" enable-background="new 0 0 487.7 424.9" xml:space="preserve">
<g>
	<g>
		<defs>
			<path id="SVGID_1_" d="M99.9,6.2C59.8,6.2,27,41.5,26.7,84.9v184.3c0.3,43.4,33.1,78.7,73.2,78.7h286.4
				c39.8,0,72.7-35.1,73.2-78.2l0-259.3V6.2h-4.2H99.9L99.9,6.2z"/>
		</defs>
		<clipPath id="SVGID_2_">
			<use xlink:href="#SVGID_1_"  overflow="visible"/>
		</clipPath>
		<g clip-path="url(#SVGID_2_)">
			<defs>
				<rect id="SVGID_3_" x="26.7" y="6.2" width="432.8" height="341.7"/>
			</defs>
			<clipPath id="SVGID_4_">
				<use xlink:href="#SVGID_3_"  overflow="visible"/>
			</clipPath>
		</g>
	</g>
	<radialGradient id="SVGID_5_" cx="86.0875" cy="59.0617" r="313.9818" gradientUnits="userSpaceOnUse">
		<stop  offset="0" style="stop-color:#2470B7"/>
		<stop  offset="1" style="stop-color:#18223F"/>
	</radialGradient>
	<path fill="url(#SVGID_5_)" stroke="#FFFFFF" stroke-width="8.4304" stroke-miterlimit="10" d="M99.9,6.2
		C59.8,6.2,27,41.5,26.7,84.9v184.3c0.3,43.4,33.1,78.7,73.2,78.7h286.4c39.8,0,72.7-35.1,73.2-78.2l0-259.3V6.2h-4.2H99.9L99.9,6.2
		z"/>
	<path fill="#18223F" d="M4,415.5v-12.6h8.8c6.3,0,10-4.4,10-9.6s-3.6-9.6-10-9.6H0v31.8H4L4,415.5z M12.3,399.4H4v-12.1h8.3
		c3.8,0,6.3,2.5,6.3,6.1S16.1,399.4,12.3,399.4L12.3,399.4z M36.6,416.1c3.8,0,6.9-1.2,9.1-3.5l-1.7-2.3c-1.8,1.9-4.5,2.9-7.1,2.9
		c-5,0-8-3.6-8.3-8h18.6v-0.9c0-6.9-4.1-12.3-11.1-12.3c-6.6,0-11.3,5.4-11.3,12.1C24.9,411.2,29.8,416.1,36.6,416.1L36.6,416.1z
		 M43.8,402.6H28.7c0.2-3.5,2.6-7.7,7.5-7.7C41.4,394.9,43.7,399.2,43.8,402.6L43.8,402.6z M62.1,416.1c7,0,11.4-5.4,11.4-12.1
		c0-6.7-4.4-12.1-11.4-12.1c-7,0-11.4,5.4-11.4,12.1C50.8,410.7,55.1,416.1,62.1,416.1L62.1,416.1z M62.1,412.9
		c-4.9,0-7.7-4.2-7.7-8.9c0-4.7,2.8-8.9,7.7-8.9c4.9,0,7.6,4.2,7.6,8.9C69.8,408.7,67.1,412.9,62.1,412.9L62.1,412.9z M89.7,416.1
		c6.1,0,10.2-4.7,10.2-12.1c0-7.5-4.2-12.1-10.2-12.1c-3.2,0-6.1,1.7-7.8,4v-3.4h-3.6v31.8h3.6v-12.2
		C83.8,414.6,86.6,416.1,89.7,416.1L89.7,416.1z M88.8,412.9c-2.8,0-5.6-1.7-6.9-3.7v-10.4c1.2-2,4-3.7,6.9-3.7
		c4.6,0,7.4,3.8,7.4,8.9C96.2,409.1,93.4,412.9,88.8,412.9L88.8,412.9z M108.4,415.5v-31.8h-3.6v31.8H108.4L108.4,415.5z
		 M124.9,416.1c3.8,0,6.9-1.2,9.1-3.5l-1.7-2.3c-1.8,1.9-4.5,2.9-7.1,2.9c-5,0-8-3.6-8.3-8h18.6v-0.9c0-6.9-4.1-12.3-11.1-12.3
		c-6.6,0-11.3,5.4-11.3,12.1C113.2,411.2,118.1,416.1,124.9,416.1L124.9,416.1z M132.1,402.6H117c0.2-3.5,2.6-7.7,7.5-7.7
		C129.7,394.9,132,399.2,132.1,402.6L132.1,402.6z M162.4,416.1c4.2,0,6.7-1.7,8.4-4l-2.4-2.2c-1.5,2-3.5,3-5.9,3
		c-4.9,0-8-3.8-8-8.9c0-5.1,3-8.9,8-8.9c2.4,0,4.3,0.9,5.9,3l2.4-2.2c-1.8-2.3-4.2-4-8.4-4c-6.9,0-11.5,5.2-11.5,12.1
		C150.9,410.9,155.5,416.1,162.4,416.1L162.4,416.1z M193,415.5v-15.8c0-5.6-4-7.8-8.9-7.8c-3.8,0-6.7,1.2-9.2,3.8l1.7,2.5
		c2-2.2,4.3-3.2,7.1-3.2c3.3,0,5.8,1.8,5.8,4.9v4.1c-1.9-2.1-4.5-3.1-7.6-3.1c-3.9,0-8.1,2.4-8.1,7.6c0,5,4.1,7.6,8.1,7.6
		c3.1,0,5.7-1.1,7.6-3.2v2.6H193L193,415.5z M183,413.5c-3.3,0-5.7-2.1-5.7-5c0-3,2.3-5.1,5.7-5.1c2.5,0,5,1,6.3,2.9v4.3
		C188,412.6,185.6,413.5,183,413.5L183,413.5z M202.6,415.5v-16.3c1-1.9,4.1-3.7,6.2-3.7c0.6,0,1,0,1.4,0.1v-3.7
		c-3.1,0-5.8,1.8-7.7,4.2v-3.7H199v23H202.6L202.6,415.5z M215.5,389.2c1.3,0,2.4-1,2.4-2.4c0-1.3-1.1-2.4-2.4-2.4
		c-1.3,0-2.4,1.1-2.4,2.4C213.1,388.2,214.2,389.2,215.5,389.2L215.5,389.2z M217.3,415.5v-23h-3.6v23H217.3L217.3,415.5z
		 M242.5,415.5v-16.2c0-5-2.5-7.4-7.3-7.4c-3.4,0-6.6,2-8.2,3.9v-3.3h-3.6v23h3.6v-16.8c1.3-1.9,4-3.6,6.8-3.6
		c3.1,0,5.1,1.3,5.1,5.3v15.1H242.5L242.5,415.5z M257.9,424.9c5.6,0,11-2.4,11-10v-22.3h-3.6v3.5c-1.9-2.5-4.6-4-7.7-4
		c-6.1,0-10.2,4.6-10.2,12c0,7.4,4.2,11.9,10.2,11.9c3.2,0,6.1-1.8,7.7-4.1v3.3c0,5.1-3.6,6.9-7.4,6.9c-3.3,0-5.6-0.9-7.5-3.1
		l-1.8,2.7C251.3,424.1,254,424.9,257.9,424.9L257.9,424.9z M258.4,412.7c-4.6,0-7.4-3.7-7.4-8.8c0-5.1,2.8-8.8,7.4-8.8
		c2.9,0,5.6,1.7,6.9,3.7v10.1C264,410.9,261.3,412.7,258.4,412.7L258.4,412.7z M291.4,415.5v-19.9h4.7v-3.1h-4.7v-1.8
		c0-2.9,1.3-4.5,3.6-4.5c1.2,0,2.1,0.5,2.9,1.1l1.5-2.3c-1.4-1.3-3.1-1.8-4.9-1.8c-4.1,0-6.7,2.8-6.7,7.5v1.8h-3.8v3.1h3.8v19.9
		H291.4L291.4,415.5z M309.1,416.1c7,0,11.4-5.4,11.4-12.1c0-6.7-4.4-12.1-11.4-12.1c-7,0-11.4,5.4-11.4,12.1
		C297.7,410.7,302.1,416.1,309.1,416.1L309.1,416.1z M309.1,412.9c-4.9,0-7.7-4.2-7.7-8.9c0-4.7,2.8-8.9,7.7-8.9
		c4.9,0,7.6,4.2,7.6,8.9C316.7,408.7,314,412.9,309.1,412.9L309.1,412.9z M328.8,415.5v-16.3c1-1.9,4.1-3.7,6.2-3.7
		c0.6,0,1,0,1.4,0.1v-3.7c-3.1,0-5.8,1.8-7.7,4.2v-3.7h-3.6v23H328.8L328.8,415.5z M363.2,416.1c6.1,0,10.2-4.7,10.2-12.1
		c0-7.5-4.2-12.1-10.2-12.1c-3.2,0-6.1,1.7-7.8,4v-3.4h-3.6v31.8h3.6v-12.2C357.3,414.6,360.1,416.1,363.2,416.1L363.2,416.1z
		 M362.3,412.9c-2.8,0-5.6-1.7-6.9-3.7v-10.4c1.2-2,4.1-3.7,6.9-3.7c4.6,0,7.4,3.8,7.4,8.9C369.7,409.1,366.9,412.9,362.3,412.9
		L362.3,412.9z M388.7,416.1c3.8,0,6.9-1.2,9.1-3.5l-1.7-2.3c-1.8,1.9-4.5,2.9-7.1,2.9c-5,0-8-3.6-8.3-8h18.6v-0.9
		c0-6.9-4.1-12.3-11.1-12.3c-6.6,0-11.3,5.4-11.3,12.1C377,411.2,381.9,416.1,388.7,416.1L388.7,416.1z M395.9,402.6h-15.1
		c0.2-3.5,2.6-7.7,7.5-7.7C393.5,394.9,395.8,399.2,395.9,402.6L395.9,402.6z M414.2,416.1c7,0,11.4-5.4,11.4-12.1
		c0-6.7-4.4-12.1-11.4-12.1s-11.4,5.4-11.4,12.1C402.9,410.7,407.2,416.1,414.2,416.1L414.2,416.1z M414.2,412.9
		c-4.9,0-7.7-4.2-7.7-8.9c0-4.7,2.8-8.9,7.7-8.9s7.6,4.2,7.6,8.9C421.9,408.7,419.2,412.9,414.2,412.9L414.2,412.9z M441.8,416.1
		c6.1,0,10.2-4.7,10.2-12.1c0-7.5-4.2-12.1-10.2-12.1c-3.2,0-6.1,1.7-7.8,4v-3.4h-3.6v31.8h3.6v-12.2
		C435.9,414.6,438.6,416.1,441.8,416.1L441.8,416.1z M440.9,412.9c-2.8,0-5.6-1.7-6.9-3.7v-10.4c1.2-2,4-3.7,6.9-3.7
		c4.6,0,7.4,3.8,7.4,8.9C448.3,409.1,445.5,412.9,440.9,412.9L440.9,412.9z M460.5,415.5v-31.8h-3.6v31.8H460.5L460.5,415.5z
		 M477,416.1c3.8,0,6.9-1.2,9.1-3.5l-1.7-2.3c-1.8,1.9-4.5,2.9-7.1,2.9c-5,0-8-3.6-8.3-8h18.6v-0.9c0-6.9-4.1-12.3-11.1-12.3
		c-6.6,0-11.3,5.4-11.3,12.1C465.3,411.2,470.2,416.1,477,416.1L477,416.1z M484.2,402.6h-15.1c0.2-3.5,2.6-7.7,7.5-7.7
		C481.8,394.9,484.1,399.2,484.2,402.6L484.2,402.6z"/>
	<path fill="#FFFFFF" d="M141.9,294.3v-36.6h-4.6v15.8H116v-15.8h-4.6v36.6h4.6v-16.8h21.4v16.8H141.9L141.9,294.3z M162.2,294.9
		c4.3,0,7.9-1.4,10.5-4.1l-2-2.7c-2.1,2.1-5.2,3.3-8.2,3.3c-5.7,0-9.2-4.2-9.6-9.2h21.5v-1c0-8-4.7-14.2-12.7-14.2
		c-7.6,0-13.1,6.2-13.1,13.9C148.7,289.3,154.4,294.9,162.2,294.9L162.2,294.9z M170.5,279.3h-17.4c0.2-4.1,3-8.8,8.7-8.8
		C167.8,270.5,170.4,275.4,170.5,279.3L170.5,279.3z M201.3,294.3V276c0-6.4-4.7-8.9-10.3-8.9c-4.3,0-7.7,1.4-10.6,4.4l1.9,2.9
		c2.4-2.5,4.9-3.7,8.1-3.7c3.8,0,6.7,2,6.7,5.6v4.8c-2.1-2.5-5.2-3.6-8.8-3.6c-4.5,0-9.3,2.8-9.3,8.7c0,5.8,4.8,8.8,9.3,8.8
		c3.6,0,6.6-1.3,8.8-3.7v3H201.3L201.3,294.3z M189.9,291.9c-3.8,0-6.5-2.4-6.5-5.8c0-3.4,2.7-5.8,6.5-5.8c2.9,0,5.7,1.1,7.3,3.3v5
		C195.6,290.8,192.8,291.9,189.9,291.9L189.9,291.9z M213.1,294.3v-36.6H209v36.6H213.1L213.1,294.3z M227.9,294.9
		c2.4,0,3.9-0.7,4.9-1.7l-1.2-3.1c-0.5,0.6-1.6,1.1-2.8,1.1c-1.8,0-2.7-1.4-2.7-3.4v-16.5h5.4v-3.6h-5.4v-7.2H222v7.2h-4.4v3.6h4.4
		v17.3C222,292.7,224,294.9,227.9,294.9L227.9,294.9z M259.3,294.3v-18.7c0-5.8-2.9-8.5-8.5-8.5c-4,0-7.6,2.3-9.5,4.5v-13.9h-4.1
		v36.6h4.1v-19.4c1.6-2.1,4.7-4.1,7.9-4.1c3.6,0,6,1.4,6,6v17.5H259.3L259.3,294.3z M293.8,294.9c6.5,0,10.9-3.1,13.9-7.2l-3.9-2.1
		c-2.1,3.1-5.9,5.3-10,5.3c-8,0-14.1-6.2-14.1-14.9c0-8.7,6.1-14.9,14.1-14.9c4.2,0,8,2.3,10,5.3l3.8-2.1c-2.9-4.1-7.4-7.2-13.9-7.2
		c-10.5,0-18.8,7.7-18.8,18.9C274.9,287.2,283.2,294.9,293.8,294.9L293.8,294.9z M333.8,294.3V276c0-6.4-4.7-8.9-10.3-8.9
		c-4.3,0-7.7,1.4-10.6,4.4l1.9,2.9c2.4-2.5,4.9-3.7,8.1-3.7c3.8,0,6.7,2,6.7,5.6v4.8c-2.1-2.5-5.2-3.6-8.8-3.6
		c-4.5,0-9.3,2.8-9.3,8.7c0,5.8,4.8,8.8,9.3,8.8c3.6,0,6.6-1.3,8.8-3.7v3H333.8L333.8,294.3z M322.3,291.9c-3.8,0-6.5-2.4-6.5-5.8
		c0-3.4,2.7-5.8,6.5-5.8c2.9,0,5.7,1.1,7.3,3.3v5C328.1,290.8,325.3,291.9,322.3,291.9L322.3,291.9z M344,294.3v-18.8
		c1.2-2.1,4.7-4.2,7.2-4.2c0.7,0,1.2,0.1,1.6,0.2v-4.2c-3.6,0-6.7,2-8.8,4.8v-4.3h-4.1v26.5H344L344,294.3z M368.7,294.9
		c4.3,0,7.9-1.4,10.5-4.1l-2-2.7c-2.1,2.1-5.2,3.3-8.2,3.3c-5.7,0-9.2-4.2-9.6-9.2H381v-1c0-8-4.7-14.2-12.7-14.2
		c-7.6,0-13.1,6.2-13.1,13.9C355.2,289.3,360.9,294.9,368.7,294.9L368.7,294.9z M377,279.3h-17.4c0.2-4.1,3-8.8,8.7-8.8
		C374.3,270.5,376.9,275.4,377,279.3L377,279.3z"/>
	<path fill="#FFFFFF" d="M155.2,236.6l-11.9-20.1c5.7-1.3,11.6-6.3,11.6-15.7c0-9.8-6.7-17-17.7-17h-24.7v52.8h11.2v-18.8h8.2
		l10.4,18.8H155.2L155.2,236.6z M135.5,208h-11.8v-14.3h11.8c4.5,0,7.9,2.7,7.9,7.1C143.4,205.3,140,208,135.5,208L135.5,208z
		 M194.7,236.6v-24.7c0-11-8-14.5-16.7-14.5c-6,0-12,1.9-16.7,6l3.8,6.7c3.2-3,7-4.5,11.2-4.5c5.1,0,8.4,2.5,8.4,6.4v5.1
		c-2.5-3-7-4.7-12.1-4.7c-6.1,0-13.3,3.4-13.3,12.3c0,8.6,7.2,12.7,13.3,12.7c5,0,9.5-1.8,12.1-4.9v4H194.7L194.7,236.6z
		 M176.6,230.8c-4,0-7.2-2.1-7.2-5.6c0-3.7,3.2-5.8,7.2-5.8c3.2,0,6.4,1.1,8.1,3.3v4.8C183,229.7,179.8,230.8,176.6,230.8
		L176.6,230.8z M261,236.6V209c0-7.8-4.2-11.6-11.2-11.6c-5.9,0-10.9,3.5-13.1,7c-1.4-4.4-5-7-10.6-7c-5.9,0-10.9,3.6-12.5,5.9v-5
		h-10.1v38.2h10.1v-25.7c1.5-2.1,4.4-4.5,7.9-4.5c4.1,0,5.7,2.5,5.7,6.1v24.1h10.1v-25.8c1.4-2.1,4.4-4.4,7.9-4.4
		c4.1,0,5.7,2.5,5.7,6.1v24.1H261L261,236.6z M283.9,237.6c10.6,0,16.5-5.3,16.5-12.3c0-15.4-22.6-10.7-22.6-16.4
		c0-2.1,2.4-3.8,6-3.8c4.7,0,9,2,11.3,4.4l4-6.9c-3.8-3-8.9-5.2-15.4-5.2c-10.1,0-15.7,5.6-15.7,12c0,15,22.7,9.9,22.7,16.2
		c0,2.4-2.1,4.1-6.4,4.1c-4.8,0-10.5-2.6-13.2-5.2l-4.4,7C270.8,235.4,277.2,237.6,283.9,237.6L283.9,237.6z M340.1,236.6v-24.7
		c0-11-8-14.5-16.7-14.5c-6,0-12,1.9-16.7,6l3.8,6.7c3.2-3,7-4.5,11.2-4.5c5.1,0,8.4,2.5,8.4,6.4v5.1c-2.5-3-7-4.7-12.1-4.7
		c-6.1,0-13.3,3.4-13.3,12.3c0,8.6,7.2,12.7,13.3,12.7c5,0,9.5-1.8,12.1-4.9v4H340.1L340.1,236.6z M322,230.8c-4,0-7.2-2.1-7.2-5.6
		c0-3.7,3.2-5.8,7.2-5.8c3.2,0,6.4,1.1,8.1,3.3v4.8C328.4,229.7,325.2,230.8,322,230.8L322,230.8z M346.5,251.6
		c1.3,0.3,3.8,0.6,5,0.6c6.6-0.2,11.6-2.1,14.5-9.3l18-44.5h-10.8l-10,26.6l-10-26.6h-10.8l15.5,38.8l-1.4,3.2
		c-1,2.1-2.7,2.8-5.3,2.8c-1,0-2.3-0.2-3.2-0.6L346.5,251.6L346.5,251.6z"/>
	<polygon fill="#FFFFFF" points="240.3,104.7 195.6,104.7 195.6,59.9 240.3,59.9 240.3,104.7 	"/>
	<polygon fill="#FFFFFF" points="290.6,104.7 245.8,104.7 245.8,59.9 290.6,59.9 290.6,104.7 	"/>
	<polygon fill="#FFFFFF" points="240.3,154.9 195.6,154.9 195.6,110.2 240.3,110.2 240.3,154.9 	"/>
	<polygon fill="#FFFFFF" points="245.8,114.1 245.8,154.9 286.7,154.9 245.8,114.1 	"/>
	<polygon fill="#FFFFFF" points="290.6,151.1 290.6,110.2 249.7,110.2 290.6,151.1 	"/>
</g>
</svg>
