<?xml version="1.0" encoding="utf-8"?>
<!-- Generator: Adobe Illustrator 16.0.0, SVG Export Plug-In . SVG Version: 6.00 Build 0)  -->
<!DOCTYPE svg PUBLIC "-//W3C//DTD SVG 1.1//EN" "http://www.w3.org/Graphics/SVG/1.1/DTD/svg11.dtd">
<svg version="1.1" id="Layer_1" xmlns="http://www.w3.org/2000/svg" xmlns:xlink="http://www.w3.org/1999/xlink" x="0px" y="0px"
	 width="116px" height="25px" viewBox="0 0 116 25" enable-background="new 0 0 116 25" xml:space="preserve">
<path d="M22.365,0.473h3.976v24.055h-3.976V0.473z M15.109,3.355c-2.286-1.988-5.566-2.882-9.94-2.882H0v24.055h5.069
	c4.473,0,7.853-0.994,10.139-3.082c2.584-2.385,3.976-5.268,3.976-8.945C19.184,8.723,17.792,5.642,15.109,3.355z M12.524,18.563
	c-1.491,1.392-3.976,2.187-7.355,2.187H4.075V4.25h1.094c3.379,0,5.765,0.695,7.256,1.988c1.79,1.59,2.684,3.678,2.684,6.262
	C15.109,14.984,14.214,16.973,12.524,18.563z M112.422,3.753c-2.485-2.485-5.367-3.678-8.847-3.678s-6.462,1.192-8.847,3.678
	c-2.485,2.385-3.678,5.367-3.678,8.747c0,6.958,5.566,12.425,12.524,12.425S116.1,19.458,116.1,12.5
	C116.1,9.12,114.807,6.138,112.422,3.753z M109.539,18.563c-1.689,1.689-3.678,2.485-6.063,2.485c-4.771,0-8.548-3.877-8.548-8.648
	c0-2.385,0.895-4.473,2.484-6.163s3.678-2.485,5.964-2.485c2.485,0.099,4.474,0.994,6.163,2.684c1.689,1.59,2.484,3.678,2.484,6.063
	S111.229,16.973,109.539,18.563z M76.34,24.527h13.12V20.75h-9.145v-7.455h8.35V9.518h-8.449V4.25h9.244V0.473H76.34V24.527z
	 M73.557,11.705H62.82v3.778h6.66c-0.199,1.49-0.994,2.783-2.286,3.876c-1.491,1.192-3.181,1.79-4.97,1.79
	c-2.188,0-4.076-0.896-5.865-2.685c-1.59-1.591-2.485-3.578-2.485-5.864c0-2.386,0.795-4.473,2.584-6.263
	c1.59-1.689,3.578-2.485,5.964-2.485c2.882,0,5.168,1.392,7.156,3.976l2.982-2.584c-2.585-3.479-6.064-5.168-10.139-5.168
	c-6.958,0-12.525,5.566-12.525,12.524c0,6.759,5.566,12.325,12.326,12.325c1.689,0,3.379-0.397,4.97-1.093
	c1.591-0.696,2.883-1.69,3.976-2.982c0.994-1.193,1.69-2.484,2.088-3.977c0.299-1.192,0.497-2.684,0.398-4.473L73.557,11.705z
	 M38.369,0.373L27.832,24.527h4.374l2.286-5.367c0-0.1,0.1-0.299,0.1-0.299c0.099,0,0.199,0.1,0.397,0.199
	c1.292,0.497,2.883,0.795,4.374,0.795c1.491,0,2.982-0.298,3.877-0.596c0.497-0.1,0.596-0.199,0.696-0.299
	c0,0,0.099,0.199,0.099,0.299l2.187,5.268h4.473L40.356,0.373H38.369z M42.543,15.582l-0.398,0.099
	c-0.795,0.198-1.789,0.397-2.783,0.397c-0.994,0-1.889-0.1-2.783-0.397c-0.199-0.099-0.397-0.198-0.497-0.198
	c0.1-0.199,0.199-0.398,0.199-0.498l3.081-7.355l2.982,7.455C42.444,15.184,42.543,15.383,42.543,15.582z"/>
</svg>
