<?xml version="1.0" encoding="utf-8"?>
<!-- Generator: Adobe Illustrator 16.0.0, SVG Export Plug-In . SVG Version: 6.00 Build 0)  -->
<!DOCTYPE svg PUBLIC "-//W3C//DTD SVG 1.1//EN" "http://www.w3.org/Graphics/SVG/1.1/DTD/svg11.dtd">
<svg version="1.1" id="icon-fifacom-logo" xmlns="http://www.w3.org/2000/svg" xmlns:xlink="http://www.w3.org/1999/xlink" x="0px"
	 y="0px" width="612px" height="792px" viewBox="0 0 612 792" enable-background="new 0 0 612 792" xml:space="preserve">
<g id="Layer_2">
	<g id="Layer_1-2">
		<polygon points="84.087,341.22 75.213,365.104 34.621,365.104 34.621,387.29 67.982,387.29 58.614,411.229 34.621,411.229 
			34.621,450.779 0,450.779 0,341.22 84.087,341.22 		"/>
		<polygon points="94.714,341.22 94.66,450.779 128.842,450.779 128.842,341.22 94.714,341.22 		"/>
		<polygon points="152.452,341.22 152.452,450.779 187.073,450.779 187.073,411.229 211.012,411.229 220.434,387.29 187.073,387.29 
			187.073,365.104 227.61,365.104 236.594,341.22 152.452,341.22 		"/>
		<path d="M289.84,415.009l-13.64-45.632l-13.257,45.632H289.84z M334.157,450.779H299.92l-4.438-14.735h-38.346l-4.492,14.735
			h-32.868l39.223-109.559h35.497L334.157,450.779z"/>
		<path fill="#FFCC00" d="M337.882,398.849l18.57,51.931c14.948-3.303,24.389-18.098,21.086-33.045
			c-2.766-12.516-13.75-21.502-26.563-21.734C346.447,395.91,341.962,396.885,337.882,398.849z"/>
		<path d="M438.731,401.479c-3.422-1.607-7.178-2.377-10.956-2.246c-9.86,0-16.105,7.833-16.105,19.337s5.479,19.939,16.435,19.939
			c4.215-0.17,8.36-1.136,12.216-2.849l0.712,13.202c-5.158,1.494-10.518,2.178-15.886,2.027c-20.104,0-30.185-13.695-30.185-32.32
			c0-17.694,10.464-31.663,29.581-31.663c5.205-0.112,10.396,0.572,15.394,2.027L438.731,401.479z"/>
		<path d="M479.816,386.797c16.86-0.848,31.216,12.133,32.063,28.994c0.057,1.126,0.051,2.255-0.018,3.381
			c-0.002,17.668-14.327,31.989-31.995,31.987c-17.665-0.002-31.985-14.322-31.987-31.987
			c-1.017-16.852,11.819-31.336,28.671-32.353C477.638,386.753,478.729,386.746,479.816,386.797z M479.816,438.399
			c12.216,0,15.448-10.956,15.448-21.09c0-10.135-4.985-18.187-15.448-18.187s-15.283,9.038-15.283,18.187
			C464.533,427.389,467.71,438.399,479.816,438.399z"/>
		<path d="M522.271,389.646h14.846v8.546l0,0c3.938-6.208,10.779-9.97,18.132-9.97c7.776-0.708,15.106,3.735,18.077,10.957
			c3.788-6.975,11.187-11.214,19.118-10.957c15.064,0,19.338,10.298,19.338,23.939v38.619h-15.887v-36.482
			c0-5.479,0-13.75-9.148-13.75c-10.572,0-11.887,12.6-11.887,20.542v29.69h-15.887v-36.482c0-5.479,0-13.75-9.147-13.75
			c-10.573,0-11.888,12.6-11.888,20.542v29.69h-15.886L522.271,389.646z"/>
	</g>
</g>
</svg>
